<svg id="Layer_1" data-name="Layer 1" xmlns="http://www.w3.org/2000/svg" viewBox="0 0 271.06 210.82"><defs><style>.cls-1{fill:#db783e;}</style></defs><polygon class="cls-1" points="240.94 60.24 210.82 60.24 180.71 60.24 150.59 60.24 120.47 60.24 120.47 30.12 120.47 0 90.35 0 90.35 30.12 60.24 30.12 60.24 60.24 30.12 60.24 30.12 90.35 0 90.35 0 120.47 30.12 120.47 30.12 150.59 60.24 150.59 60.24 180.71 90.35 180.71 90.35 210.82 120.47 210.82 120.47 180.71 120.47 150.59 150.59 150.59 180.71 150.59 210.82 150.59 240.94 150.59 271.06 150.59 271.06 120.47 271.06 90.35 271.06 60.24 240.94 60.24"/></svg>