<svg id="Layer_1" data-name="Layer 1" xmlns="http://www.w3.org/2000/svg" viewBox="0 0 512 512"><defs><style>.cls-1{fill:#6da9f0;}.cls-2{fill:#fff;}.cls-3{fill:#5f95d6;}.cls-4{fill:#5983c6;}.cls-5{fill:#498e8c;}.cls-6{fill:#519660;}.cls-7{fill:#4a8451;}</style></defs><path class="cls-1" d="M512,512H0V0H512Z"/><path class="cls-2" d="M-25,68c23.26,8.38,76.13,34.36,118,39,11.06,1.23,59.3,4,130-10,76-15,63.29-15,116-20,28.23-2.7,120.89-10.68,212,36,15.72,8,17.57,15.08,25,21,82.7,65.93,77.84,283.24-22,400C425.16,684.67,112.93,697.39-19,512-102,395.38-116.31,207.32-25,68Z"/><path class="cls-3" d="M-4.83,95.42C62.48,109.13,66.76,115.18,93,118c19.19,2.06,39.41.57,80.17-4.58,51.28-6.49,59.7-13.18,99-19,61.55-9.12,111.39-2.7,127-1,36.18,3.92,69.42,13.66,123,28,7,1.87,10.48,2.8,11,3,66.69,25.1,108.86,268.1,8,401-119.87,157.94-439.3,157.16-563-3-115.81-149.94-45.52-420.71,4-429C-16.44,93.18-15.53,93.24-4.83,95.42Z"/><path class="cls-4" d="M-20,148c14.59-4.66,23.24,7.63,61,14,54.2,9.14,85.39-7.93,129-16,79.27-14.66,85,21.62,230,31,72.76,4.71,109.14,7.06,141-7,3-1.33,6.68-3.08,11-2,38.75,9.65,67.24,230.3-26,350C412.82,663.3,112.84,669.37-9,518-112,390-74.83,165.51-20,148Z"/><path class="cls-5" d="M-17,227c23.18-12.1,42.56,6.9,127,14,27.78,2.34,57.52,1.22,117-1,79.37-3,132-7.91,217-8,73.15-.08,90.57,3.52,106,17,35.76,31.24,31.35,89.73,29,121-4.92,65.29-35.33,119.5-61,150C407.66,651.14,105.34,665.62-8,516-82.37,417.82-70.76,255.07-17,227Z"/><path class="cls-6" d="M-10,346c49.73-69.29,178.28-51.39,217-46,78.38,10.91,78.88,35,162,48,111.82,17.48,165.46-17.6,190,13,26.12,32.58-3.23,111.55-47,161C389.93,659.93,81.93,651.65-4,514-34.25,465.54-42.81,391.72-10,346Z"/><path class="cls-7" d="M-12,375c17.73-13.19,40.31,5.68,90,14,76.06,12.74,86.64-20.82,182-24,91-3,92,27.19,190,21,51.16-3.23,77.25-13.13,92,3,22.42,24.52,0,88.82-27,126C415.13,652.29,84.63,649.47-1,514-30.09,468-38.48,394.69-12,375Z"/></svg>