<?xml version="1.0" encoding="UTF-8"?><svg xmlns="http://www.w3.org/2000/svg" xmlns:xlink="http://www.w3.org/1999/xlink" viewBox="0 0 460 460"><defs><style>.q{fill:aqua;}.r{fill:#ff99ec;}.s{fill:#fafdff;}.t{fill:#662d91;}.u{fill:blue;}.v{fill:#ff5f5f;}.w{fill:#ffc7c7;}.x{fill:lime;}.y{clip-path:url(#d);}.a`{fill:none;}.aa{clip-path:url(#p);}.ab{clip-path:url(#f);}.ac{fill:red;}.ad{fill:#ff0;}</style><clipPath id="d"><path class="a`" d="M-268.9,10.71c-121.5,0-220,98.5-220,220s98.5,220,220,220S-48.9,352.22-48.9,230.71-147.4,10.71-268.9,10.71Zm0,320c-55.23,0-100-44.77-100-100s44.77-100,100-100,100,44.77,100,100-44.77,100-100,100Z"/></clipPath><clipPath id="f"><path class="a`" d="M230,10C108.5,10,10,108.5,10,230s98.5,220,220,220,220-98.5,220-220S351.5,10,230,10Zm0,320c-55.23,0-100-44.77-100-100s44.77-100,100-100,100,44.77,100,100-44.77,100-100,100Z"/></clipPath><clipPath id="p"><path class="a`" d="M735.9,10c-121.5,0-220,98.5-220,220s98.5,220,220,220,220-98.5,220-220S857.4,10,735.9,10Zm0,320c-55.23,0-100-44.77-100-100s44.77-100,100-100,100,44.77,100,100-44.77,100-100,100Z"/></clipPath></defs><g id="a"/><g id="b"/><g id="c"><g class="y"><g><rect class="x" x="-2.57" y="257.04" width="5.23" height="22.87" rx="2.58" ry="2.58" transform="translate(-121.99 29.33) rotate(-27.02)"/><rect class="u" x=".24" y="310.49" width="4.79" height="20.97" rx="2.36" ry="2.36" transform="translate(80.83 9.66) rotate(14.57)"/><rect class="x" x="-10.52" y="340.6" width="4.77" height="20.85" rx="-.5" ry="-.5" transform="translate(-357.19 312.96) rotate(-85.11)"/><rect class="x" x="20.93" y="332.59" width="5.37" height="23.51" rx="2.65" ry="2.65" transform="translate(147.23 22.08) rotate(24.91)"/><rect class="ad" x="-8.39" y="393.58" width="5.09" height="22.27" rx=".89" ry=".89" transform="translate(204.04 58.63) rotate(30.41)"/><rect class="ad" x="18.78" y="364.83" width="5.93" height="25.96" rx="2.93" ry="2.93" transform="translate(-281.86 151.9) rotate(-50.05)"/></g></g></g><g id="e"><g><path class="r" d="M230,455c-60.1,0-116.6-23.4-159.1-65.9C28.4,346.6,5,290.1,5,230S28.4,113.4,70.9,70.9C113.4,28.4,169.9,5,230,5s116.6,23.4,159.1,65.9c42.5,42.5,65.9,99,65.9,159.1s-23.4,116.6-65.9,159.1c-42.5,42.5-99,65.9-159.1,65.9Zm0-320c-52.38,0-95,42.62-95,95s42.62,95,95,95,95-42.62,95-95-42.62-95-95-95Z"/><path d="M230,10c121.5,0,220,98.5,220,220s-98.5,220-220,220S10,351.5,10,230,108.5,10,230,10m0,320c55.23,0,100-44.77,100-100s-44.77-100-100-100-100,44.77-100,100,44.77,100,100,100M230,0C198.95,0,168.83,6.08,140.47,18.08c-27.39,11.58-51.99,28.17-73.11,49.29-21.12,21.12-37.7,45.72-49.29,73.11C6.08,168.83,0,198.95,0,230s6.08,61.17,18.08,89.53c11.58,27.39,28.17,51.99,49.29,73.11,21.12,21.12,45.72,37.7,73.11,49.29,28.36,12,58.48,18.08,89.53,18.08s61.17-6.08,89.53-18.08c27.39-11.58,51.99-28.17,73.11-49.29,21.12-21.12,37.7-45.72,49.29-73.11,12-28.36,18.08-58.48,18.08-89.53s-6.08-61.17-18.08-89.53c-11.58-27.39-28.17-51.99-49.29-73.11-21.12-21.12-45.72-37.7-73.11-49.29C291.17,6.08,261.05,0,230,0h0Zm0,320c-49.63,0-90-40.37-90-90s40.37-90,90-90,90,40.37,90,90-40.37,90-90,90h0Z"/></g><g class="ab"><g><rect class="ad" x="-8.59" y="82.9" width="4.66" height="20.37" rx=".36" ry=".36" transform="translate(-99.54 94.73) rotate(-94.86)"/><rect class="x" x="29.54" y="56.81" width="4.53" height="19.82" rx="2.23" ry="2.23" transform="translate(69.38 3.07) rotate(56.05)"/><rect class="x" x="64.16" y="46.95" width="4.72" height="20.64" rx="2.33" ry="2.33" transform="translate(-1.68 112.54) rotate(-79.75)"/><rect class="u" x="95.15" y="27.98" width="4.38" height="19.16" rx="2.16" ry="2.16" transform="translate(75.21 -64.4) rotate(56.66)"/><rect class="u" x="119.05" y="13.86" width="4.89" height="21.39" rx="2.41" ry="2.41" transform="translate(4.11 64.38) rotate(-30.17)"/><rect class="ad" x="154.96" y="-13.19" width="5.34" height="23.36" rx="2.63" ry="2.63" transform="translate(3.11 29.68) rotate(-10.86)"/><rect class="q" x="198.55" y="-19.11" width="4.82" height="21.07" rx="2.37" ry="2.37" transform="translate(13.44 64.2) rotate(-18.77)"/><rect class="ad" x="19.69" y="101.21" width="5.88" height="25.72" rx="2.9" ry="2.9" transform="translate(-17.82 5.04) rotate(-9.13)"/><rect class="q" x="57.79" y="83.35" width="5.99" height="26.21" rx="2.95" ry="2.95" transform="translate(-52.15 112.12) rotate(-65.68)"/><rect class="x" x="90.12" y="68.03" width="5.67" height="24.82" rx="2.8" ry="2.8" transform="translate(-20.83 126.96) rotate(-63.11)"/><rect class="x" x="121.45" y="47.58" width="4.83" height="21.15" rx="2.38" ry="2.38" transform="translate(-12.74 50.2) rotate(-21.82)"/><rect class="u" x="155.59" y="41.95" width="4.36" height="19.1" rx="2.15" ry="2.15" transform="translate(4.41 114.93) rotate(-40.55)"/><rect class="u" x="197.82" y="22.26" width="4.33" height="18.94" rx="2.13" ry="2.13" transform="translate(41.6 -94.43) rotate(29.52)"/><rect class="ad" x="235.63" y="2.4" width="5.88" height="25.72" rx="2.9" ry="2.9" transform="translate(201.09 251.35) rotate(-84.64)"/><rect class="q" x="263.13" y="-12.92" width="4.75" height="20.78" rx="2.34" ry="2.34" transform="translate(65.84 -177.56) rotate(41.78)"/><rect class="x" x="18.83" y="146.48" width="4.56" height="19.95" rx="2.25" ry="2.25" transform="translate(24.33 -1.39) rotate(8.85)"/><rect class="q" x="50.54" y="126.62" width="4.34" height="18.98" rx="2.14" ry="2.14" transform="translate(-89.02 171) rotate(-82.66)"/><rect class="ad" x="89.87" y="118.43" width="4.52" height="19.78" rx="2.23" ry="2.23" transform="translate(-54.23 68.87) rotate(-32.22)"/><rect class="ad" x="117.66" y="87.67" width="5.45" height="23.85" rx="2.69" ry="2.69" transform="translate(-18.49 171.19) rotate(-66.87)"/><rect class="ad" x="159.01" y="81.87" width="4.69" height="20.53" rx="2.31" ry="2.31" transform="translate(-3.73 177.42) rotate(-57.05)"/><rect class="x" x="191.79" y="64.31" width="4.68" height="20.5" rx="2.31" ry="2.31" transform="translate(25.57 -47.23) rotate(14.84)"/><rect class="x" x="222.98" y="52.6" width="6.08" height="26.6" rx="3" ry="3" transform="translate(6.02 149.72) rotate(-37.11)"/><rect class="ad" x="263.55" y="30" width="5.68" height="24.83" rx="2.8" ry="2.8" transform="translate(69.02 226.29) rotate(-52.02)"/><rect class="ac" x="295.6" y="14.3" width="5.94" height="26.01" rx="2.93" ry="2.93" transform="translate(102.11 -199.18) rotate(43.83)"/><rect class="u" x="337.1" y="-2.8" width="5.74" height="25.11" rx="2.83" ry="2.83" transform="translate(11.13 96.58) rotate(-16.43)"/><rect class="ad" x="-9.3" y="208.68" width="5.37" height="23.5" rx=".72" ry=".72" transform="translate(190.81 122.16) rotate(61.82)"/><rect class="x" x="14.49" y="188.35" width="5.35" height="23.39" rx="2.64" ry="2.64" transform="translate(37.11 .26) rotate(10.6)"/><rect class="x" x="56.74" y="166.7" width="5.49" height="24.03" rx="2.71" ry="2.71" transform="translate(9.37 -2.85) rotate(2.98)"/><rect class="x" x="81.87" y="147.54" width="5.97" height="26.11" rx="2.94" ry="2.94" transform="translate(-11.49 6.62) rotate(-4.18)"/><rect class="u" x="116.52" y="146.38" width="4.79" height="20.96" rx="2.36" ry="2.36" transform="translate(17.36 325.48) rotate(-111.78)"/><rect class="t" x="152.6" y="116.61" width="4.9" height="21.43" rx="2.42" ry="2.42" transform="translate(-43.75 100.26) rotate(-31.64)"/><rect class="x" x="186.91" y="98.23" width="5.32" height="23.27" rx="2.62" ry="2.62" transform="translate(151.77 -105.95) rotate(49.97)"/><rect class="u" x="229.54" y="98.09" width="4.44" height="19.41" rx="2.19" ry="2.19" transform="translate(152.93 350.93) rotate(-96.98)"/><rect class="x" x="261.52" y="76.71" width="5.98" height="26.15" rx="2.95" ry="2.95" transform="translate(256.72 368.99) rotate(-107.15)"/><rect class="x" x="288.91" y="58.46" width="4.56" height="19.96" rx="2.25" ry="2.25" transform="translate(118.16 312.44) rotate(-67.88)"/><rect class="ac" x="335.21" y="37.05" width="5.38" height="23.52" rx="2.65" ry="2.65" transform="translate(3.72 118.7) rotate(-20.03)"/><rect class="u" x="361.17" y="29.26" width="5.47" height="23.94" rx="2.7" ry="2.7" transform="translate(18.39 -80.21) rotate(12.9)"/><rect class="x" x="21.99" y="222.75" width="5.77" height="25.24" rx="2.84" ry="2.84" transform="translate(-88.21 27.46) rotate(-22.51)"/><rect class="t" x="57.7" y="205.51" width="5.92" height="25.91" rx="2.92" ry="2.92" transform="translate(22.42 -5.02) rotate(5.81)"/><rect class="ad" x="83.6" y="201.95" width="5.46" height="23.9" rx="2.69" ry="2.69" transform="translate(-106.4 87.17) rotate(-34.69)"/><rect class="ad" x="126.15" y="180.38" width="4.58" height="20.02" rx="2.26" ry="2.26" transform="translate(125.76 -39.26) rotate(33.34)"/><rect class="ad" x="158.77" y="168.37" width="4.61" height="20.15" rx="2.27" ry="2.27" transform="translate(-55.17 73.45) rotate(-22.03)"/><rect class="ad" x="184.19" y="142.45" width="5.24" height="22.94" rx="2.58" ry="2.58" transform="translate(-52.9 187.52) rotate(-47.47)"/><rect class="u" x="227.27" y="131.2" width="4.93" height="21.56" rx="2.43" ry="2.43" transform="translate(-7.75 13.39) rotate(-3.28)"/><rect class="q" x="258.97" y="121.66" width="6.03" height="26.38" rx="2.97" ry="2.97" transform="translate(141.64 -134.11) rotate(38.66)"/><rect class="ac" x="288.03" y="97.55" width="5.28" height="23.11" rx="2.6" ry="2.6" transform="translate(42.91 296.21) rotate(-57.63)"/><rect class="q" x="334.5" y="88.66" width="5.8" height="25.37" rx="2.86" ry="2.86" transform="translate(27.41 268.73) rotate(-45.09)"/><rect class="ad" x="367.05" y="67.72" width="5.55" height="24.28" rx="2.74" ry="2.74" transform="translate(41.76 -108.61) rotate(17.69)"/><rect class="ad" x="401.55" y="45.3" width="5.91" height="25.88" rx="2.92" ry="2.92" transform="translate(303.33 454.19) rotate(-83.86)"/><rect class="q" x="21.04" y="271.51" width="5.8" height="25.37" rx="2.86" ry="2.86" transform="translate(-244.31 381.06) rotate(-105.04)"/><rect class="ac" x="44.75" y="259.3" width="5.37" height="23.49" rx="2.65" ry="2.65" transform="translate(-189.73 131.51) rotate(-49.6)"/><rect class="u" x="91.87" y="237.8" width="5.13" height="22.43" rx="2.53" ry="2.53" transform="translate(-171.88 250.42) rotate(-69.53)"/><rect class="q" x="116.29" y="231.4" width="4.31" height="18.87" rx="2.13" ry="2.13" transform="translate(-75.19 55) rotate(-19.99)"/><rect class="u" x="160.02" y="214.32" width="5.34" height="23.37" rx="2.63" ry="2.63" transform="translate(-86.84 349.63) rotate(-80.61)"/><rect class="x" x="189.06" y="184.14" width="4.96" height="21.7" rx="2.45" ry="2.45" transform="translate(90.86 449.1) rotate(-113.9)"/><rect class="ad" x="231.58" y="179.29" width="4.98" height="21.79" rx="2.46" ry="2.46" transform="translate(-63.91 143.61) rotate(-30.21)"/><rect class="q" x="257.44" y="152.45" width="4.9" height="21.42" rx="2.41" ry="2.41" transform="translate(15.75 -22.74) rotate(5.17)"/><rect class="ac" x="293.14" y="142.88" width="5.3" height="23.17" rx="2.61" ry="2.61" transform="translate(265.26 -177.83) rotate(57.18)"/><rect class="ad" x="322.84" y="128.69" width="4.46" height="19.49" rx="2.2" ry="2.2" transform="translate(298.91 -213.92) rotate(62.69)"/><rect class="q" x="368.47" y="102.21" width="6.06" height="26.51" rx="2.99" ry="2.99" transform="translate(307.3 -268.23) rotate(63.24)"/><rect class="q" x="398.29" y="85.63" width="5.84" height="25.56" rx="2.88" ry="2.88" transform="translate(118.7 -203) rotate(33.07)"/><rect class="x" x="12.04" y="314.72" width="4.32" height="18.89" rx="2.13" ry="2.13" transform="translate(95.27 9.98) rotate(16.98)"/><rect class="x" x="45.8" y="291.96" width="6.06" height="26.52" rx="2.99" ry="2.99" transform="translate(-235.67 184.38) rotate(-57.9)"/><rect class="x" x="90.6" y="274.94" width="5.26" height="23.02" rx="2.59" ry="2.59" transform="translate(-7.94 2.71) rotate(-1.6)"/><rect class="x" x="123.81" y="262.46" width="5.63" height="24.63" rx="2.78" ry="2.78" transform="translate(264.32 5.38) rotate(51.82)"/><rect class="x" x="160.12" y="256.68" width="5.02" height="21.95" rx="2.47" ry="2.47" transform="translate(335.15 6.26) rotate(64.71)"/><rect class="ad" x="182.69" y="237.59" width="5.61" height="24.55" rx="2.77" ry="2.77" transform="translate(-48.12 44.28) rotate(-12.06)"/><rect class="ad" x="226.24" y="216.16" width="5.61" height="24.53" rx="2.76" ry="2.76" transform="translate(86.31 -61.86) rotate(18.89)"/><rect class="x" x="259.26" y="198.45" width="5.83" height="25.52" rx="2.88" ry="2.88" transform="translate(254.47 -125.37) rotate(49.83)"/><rect class="u" x="295.23" y="182.23" width="5.51" height="24.13" rx="2.72" ry="2.72" transform="translate(50.39 449.72) rotate(-79)"/><rect class="u" x="326.37" y="171.99" width="6.03" height="26.39" rx="2.97" ry="2.97" transform="translate(97.87 -113.46) rotate(22.87)"/><rect class="ad" x="353.1" y="146.6" width="5.97" height="26.11" rx="2.94" ry="2.94" transform="translate(249.15 534.96) rotate(-98.25)"/><rect class="u" x="392.84" y="136.94" width="4.51" height="19.74" rx="2.22" ry="2.22" transform="translate(-14.24 46.31) rotate(-6.59)"/><rect class="x" x="432.29" y="114.55" width="5.61" height="24.53" rx="2.76" ry="2.76" transform="translate(-2.7 9.65) rotate(-1.27)"/><rect class="q" x="18.3" y="358.75" width="5.24" height="22.94" rx="2.59" ry="2.59" transform="translate(-340.49 287.24) rotate(-73.83)"/><rect class="t" x="46.77" y="337.11" width="5.41" height="23.65" rx="2.67" ry="2.67" transform="translate(92.19 -.89) rotate(15.03)"/><rect class="q" x="75.68" y="324.21" width="6.02" height="26.32" rx="2.97" ry="2.97" transform="translate(-88.96 34.21) rotate(-15.81)"/><rect class="ad" x="112.77" y="301.6" width="5.62" height="24.59" rx="2.77" ry="2.77" transform="translate(-213.57 254.33) rotate(-59.53)"/><rect class="q" x="151.41" y="283.05" width="5.98" height="26.18" rx="2.95" ry="2.95" transform="translate(-123.51 110.93) rotate(-28.78)"/><rect class="ad" x="180.65" y="273.79" width="5.68" height="24.86" rx="2.8" ry="2.8" transform="translate(198.72 -53.42) rotate(35.23)"/><rect class="t" x="222.28" y="260.32" width="5.24" height="22.93" rx="2.58" ry="2.58" transform="translate(328.35 -65.48) rotate(56.66)"/><rect class="q" x="258.45" y="245.23" width="5.27" height="23.04" rx="2.6" ry="2.6" transform="translate(201.02 -104.47) rotate(36.04)"/><rect class="q" x="287.65" y="230.28" width="5.52" height="24.16" rx="2.72" ry="2.72" transform="translate(85.34 560.19) rotate(-97.02)"/><rect class="u" x="317.77" y="213.44" width="4.64" height="20.29" rx="2.29" ry="2.29" transform="translate(20.01 -26.22) rotate(4.84)"/><rect class="ac" x="353.45" y="202.55" width="4.75" height="20.78" rx="2.34" ry="2.34" transform="translate(-56.13 165.53) rotate(-24.33)"/><rect class="q" x="392.21" y="179.79" width="4.34" height="18.99" rx="2.14" ry="2.14" transform="translate(33.37 436.33) rotate(-60.02)"/><rect class="x" x="430.19" y="169.44" width="5.49" height="24.02" rx="2.71" ry="2.71" transform="translate(-12.72 33.99) rotate(-4.43)"/><rect class="t" x="52.82" y="378.4" width="6.01" height="26.3" rx="2.96" ry="2.96" transform="translate(-280.61 183.62) rotate(-50.17)"/><rect class="t" x="85.34" y="373.79" width="4.49" height="19.66" rx="2.22" ry="2.22" transform="translate(-298.61 308.23) rotate(-66.09)"/><rect class="ad" x="120.64" y="343.76" width="5.22" height="22.82" rx="2.57" ry="2.57" transform="translate(-229.82 484.33) rotate(-90.96)"/><rect class="ad" x="156.52" y="332.43" width="5.25" height="22.97" rx="2.59" ry="2.59" transform="translate(-207.22 247.07) rotate(-50.36)"/><rect class="u" x="178.3" y="314.1" width="5.51" height="24.1" rx="2.72" ry="2.72" transform="translate(233.7 -43.15) rotate(37.15)"/><rect class="ad" x="226.54" y="299.32" width="4.33" height="18.95" rx="2.14" ry="2.14" transform="translate(-52.8 47.23) rotate(-10.58)"/><rect class="ac" x="251.8" y="294.95" width="4.41" height="19.29" rx="2.17" ry="2.17" transform="translate(389.15 -68.27) rotate(59.75)"/><rect class="x" x="286.82" y="268.95" width="4.41" height="19.3" rx="2.18" ry="2.18" transform="translate(-110.17 320.99) rotate(-50.01)"/><rect class="ac" x="318.9" y="258.47" width="4.28" height="18.72" rx="2.11" ry="2.11" transform="translate(63.87 -61.81) rotate(12.2)"/><rect class="ac" x="357.92" y="234.64" width="4.71" height="20.6" rx="2.32" ry="2.32" transform="translate(264.68 -180.09) rotate(43.11)"/><rect class="ad" x="399.18" y="218.99" width="6.05" height="26.46" rx="2.98" ry="2.98" transform="translate(-44.68 105.79) rotate(-14.2)"/><rect class="ad" x="432.44" y="209.49" width="5.34" height="23.37" rx="2.63" ry="2.63" transform="translate(121.75 595.39) rotate(-77)"/><rect class="x" x="465.61" y="193.66" width="5.94" height="25.99" rx="2.93" ry="2.93" transform="translate(377.97 710.7) rotate(-103.61)"/><rect class="x" x="53.36" y="419.01" width="5.52" height="24.15" rx="2.72" ry="2.72" transform="translate(-28.23 4.62) rotate(-3.77)"/><rect class="q" x="88.85" y="416.63" width="4.28" height="18.74" rx="2.11" ry="2.11" transform="translate(-32.12 8.15) rotate(-4.36)"/><rect class="q" x="113.73" y="395.66" width="4.72" height="20.64" rx="2.33" ry="2.33" transform="translate(377.23 74.17) rotate(54.16)"/><rect class="x" x="157.22" y="376.42" width="4.49" height="19.64" rx="2.21" ry="2.21" transform="translate(-194.25 163.76) rotate(-35.4)"/><rect class="ad" x="181.52" y="355.03" width="4.96" height="21.72" rx="2.45" ry="2.45" transform="translate(-174.78 563.37) rotate(-92.13)"/><rect class="ad" x="216.76" y="348.88" width="5.9" height="25.82" rx="2.91" ry="2.91" transform="translate(65.86 -32.54) rotate(9.96)"/><rect class="q" x="253.31" y="331.91" width="5.17" height="22.62" rx="2.55" ry="2.55" transform="translate(321.77 -79.8) rotate(45.56)"/><rect class="x" x="292.7" y="319.26" width="5.06" height="22.14" rx="2.5" ry="2.5" transform="translate(15.69 -13.38) rotate(2.67)"/><rect class="u" x="321.74" y="290.55" width="5.71" height="24.97" rx="2.81" ry="2.81" transform="translate(-103.28 184.22) rotate(-27.51)"/><rect class="u" x="358.41" y="278.05" width="5.44" height="23.78" rx="2.68" ry="2.68" transform="translate(144.47 699.25) rotate(-100.87)"/><rect class="ad" x="387.07" y="257.65" width="5.01" height="21.92" rx="2.47" ry="2.47" transform="translate(-28.34 46.64) rotate(-6.61)"/><rect class="ad" x="422.89" y="252.1" width="4.54" height="19.86" rx="2.24" ry="2.24" transform="translate(24.01 -35.45) rotate(4.91)"/><rect class="t" x="454.94" y="237.26" width="4.62" height="20.2" rx="2.28" ry="2.28" transform="translate(-46.73 374.91) rotate(-42.61)"/><rect class="ad" x="74.93" y="453.82" width="5.94" height="25.99" rx="2.93" ry="2.93" transform="translate(6.65 -1.06) rotate(.82)"/><rect class="q" x="114.51" y="441.38" width="4.39" height="19.23" rx="2.17" ry="2.17" transform="translate(43.29 -9.03) rotate(5.44)"/><rect class="u" x="151.52" y="415.66" width="5.02" height="21.95" rx="2.47" ry="2.47" transform="translate(-184.14 124.33) rotate(-28.35)"/><rect class="ad" x="178.93" y="403.51" width="4.39" height="19.22" rx="2.17" ry="2.17" transform="translate(-195.22 661.78) rotate(-99.78)"/><rect class="x" x="216.2" y="394.69" width="5.07" height="22.17" rx="2.5" ry="2.5" transform="translate(130.87 -46.75) rotate(17.34)"/><rect class="t" x="257.66" y="369.31" width="6.01" height="26.28" rx="2.96" ry="2.96" transform="translate(-9.22 6.45) rotate(-1.39)"/><rect class="u" x="283.45" y="361.33" width="5.35" height="23.42" rx="2.64" ry="2.64" transform="translate(57.1 783.62) rotate(-113.36)"/><rect class="u" x="321.35" y="334.04" width="5.14" height="22.48" rx="2.53" ry="2.53" transform="translate(-.97 689.64) rotate(-93.49)"/><rect class="q" x="359.24" y="326.31" width="4.88" height="21.34" rx="2.4" ry="2.4" transform="translate(142.93 780.28) rotate(-106.71)"/><rect class="q" x="385.5" y="303.68" width="4.79" height="20.94" rx="2.36" ry="2.36" transform="translate(261.97 -168.86) rotate(36.38)"/><rect class="ac" x="417.95" y="294.97" width="5.5" height="24.08" rx="2.71" ry="2.71" transform="translate(427.85 -213.75) rotate(54.67)"/><rect class="u" x="458.66" y="277.01" width="5.02" height="21.96" rx="2.47" ry="2.47" transform="translate(-46.69 482.12) rotate(-52.9)"/><rect class="ad" x="149.3" y="455.89" width="4.63" height="20.26" rx="2.28" ry="2.28" transform="translate(131.73 -23.64) rotate(15.7)"/><rect class="q" x="179.63" y="446.45" width="4.45" height="19.45" rx="2.19" ry="2.19" transform="translate(-226.19 729.44) rotate(-102.07)"/><rect class="q" x="216.57" y="424.21" width="4.75" height="20.77" rx="2.34" ry="2.34" transform="translate(143.02 -46.08) rotate(17.76)"/><rect class="ac" x="254.98" y="419.23" width="5.59" height="24.45" rx="2.76" ry="2.76" transform="translate(492.34 -13.05) rotate(58.68)"/><rect class="t" x="281.19" y="394.8" width="5.83" height="25.51" rx="2.87" ry="2.87" transform="translate(-187 565.29) rotate(-73.63)"/><rect class="q" x="325.73" y="379.84" width="5.51" height="24.1" rx="2.72" ry="2.72" transform="translate(191.26 -100.7) rotate(24.4)"/><rect class="t" x="359.25" y="369.75" width="5.26" height="23" rx="2.59" ry="2.59" transform="translate(57.73 809.98) rotate(-101.14)"/><rect class="x" x="387.17" y="346.59" width="4.33" height="18.95" rx="2.14" ry="2.14" transform="translate(-62.89 627.84) rotate(-73.45)"/><rect class="x" x="417.86" y="337.02" width="5.14" height="22.47" rx="2.53" ry="2.53" transform="translate(74.46 -74.06) rotate(11.04)"/><rect class="t" x="457.02" y="309.37" width="5.75" height="25.17" rx="2.84" ry="2.84" transform="translate(-100.05 362.25) rotate(-39.11)"/><rect class="x" x="244.72" y="450.68" width="4.85" height="21.24" rx="2.39" ry="2.39" transform="translate(-100.89 852.13) rotate(-110.13)"/><rect class="ac" x="283.51" y="438.61" width="5.33" height="23.32" rx="2.63" ry="2.63" transform="translate(-111.49 94.6) rotate(-15.75)"/><rect class="ad" x="321.85" y="427.78" width="5.62" height="24.61" rx="2.77" ry="2.77" transform="translate(-221.72 463.38) rotate(-56.02)"/><rect class="ac" x="354.74" y="406.34" width="5.72" height="25.04" rx="2.82" ry="2.82" transform="translate(-104 719.28) rotate(-82.57)"/><rect class="q" x="390.76" y="395.79" width="4.98" height="21.79" rx="2.46" ry="2.46" transform="translate(97.49 888.95) rotate(-104.44)"/><rect class="q" x="414.97" y="372.81" width="6.07" height="26.57" rx="2.99" ry="2.99" transform="translate(379.35 -181.62) rotate(43.38)"/><rect class="t" x="452.92" y="359.11" width="5.33" height="23.31" rx="2.63" ry="2.63" transform="translate(-112.61 519.7) rotate(-53.83)"/><rect class="ad" x="357.37" y="455.08" width="5.5" height="24.06" rx="2.71" ry="2.71" transform="translate(214.07 -104.33) rotate(23.29)"/><rect class="u" x="390.98" y="440.58" width="4.56" height="19.96" rx="2.25" ry="2.25" transform="translate(23.97 920.96) rotate(-100.75)"/><rect class="x" x="418.17" y="421.46" width="5.32" height="23.28" rx="2.62" ry="2.62" transform="translate(-182.81 416.13) rotate(-44.21)"/><rect class="u" x="449.58" y="397.75" width="5.74" height="25.1" rx="2.83" ry="2.83" transform="translate(-97.06 676.94) rotate(-68.09)"/></g></g><g id="g"><path class="v" d="M210.11,267.33c-19.67,0-38.64-13.96-44.12-32.47l-16.55-55.9c-2.93-9.9-1.68-19.83,3.34-26.56,3.88-5.2,9.69-8.06,16.34-8.06h120.75c6.65,0,12.46,2.86,16.34,8.06,5.03,6.73,6.28,16.66,3.34,26.56l-16.55,55.9c-5.48,18.51-24.45,32.47-44.12,32.47h-38.78Z"/><path d="M289.88,148.34c13.52,0,20.41,14.06,15.85,29.49l-16.55,55.9c-5.16,17.44-22.95,29.61-40.29,29.61h-38.78c-17.34,0-35.12-12.17-40.29-29.61l-16.55-55.9c-4.56-15.42,2.33-29.49,15.85-29.49h120.75m0-8h-120.75c-7.95,0-14.89,3.43-19.55,9.67-5.78,7.73-7.26,18.98-3.97,30.09l16.55,55.9c2.96,10,9.56,19.08,18.58,25.57,8.76,6.3,19.19,9.77,29.38,9.77h38.78c10.19,0,20.62-3.47,29.38-9.77,9.02-6.49,15.62-15.57,18.58-25.57l16.55-55.9c3.29-11.11,1.8-22.35-3.97-30.09-4.66-6.24-11.6-9.67-19.54-9.67h0Z"/></g><g id="h"><path class="s" d="M209.29,372.49c-11.2,0-21.88-4.69-30.06-13.2-9.67-10.06-14.87-24.36-14.28-39.25l2.59-65.37c1.16-29.2,23.98-52.96,50.86-52.96h22.2c26.88,0,49.7,23.76,50.86,52.96l2.59,65.37c.59,14.88-4.61,29.19-14.28,39.25-8.18,8.51-18.85,13.2-30.06,13.2h-40.43Z"/><path d="M240.6,205.71c24.7,0,45.77,21.69,46.86,49.12l2.6,65.37c1.04,26.18-17.1,48.29-40.34,48.29h-40.43c-23.24,0-41.38-22.1-40.34-48.29l2.6-65.37c1.09-27.43,22.16-49.12,46.86-49.12h22.2m0-8h-22.2c-14.19,0-27.7,5.94-38.06,16.73-10.23,10.66-16.19,24.89-16.8,40.07l-2.6,65.37c-.63,15.97,4.98,31.34,15.39,42.18,8.94,9.3,20.64,14.43,32.94,14.43h40.43c12.3,0,24-5.12,32.94-14.43,10.42-10.84,16.03-26.21,15.39-42.18l-2.6-65.37c-.6-15.18-6.57-29.41-16.8-40.07-10.35-10.79-23.87-16.73-38.06-16.73h0Z"/></g><g id="i"><g id="j"><g><path class="v" d="M149.12,178.7l-3.4-19.67c-7.67-19.79-.61-43.56,15.71-52.81l1.25-.71c16.33-9.26,35.96-.59,43.6,19.25l9.57,24.84c2.14,5.56,2.98,11.47,2.66,17.21"/><path d="M145.18,179.38c-.94-4.9-2.83-14.71-3.71-19.62l.23,.82c-2.64-6.8-3.85-14.13-3.51-21.4,.72-14.64,7.99-29.7,21.13-37.1,6.58-3.9,14.55-5.82,22.14-4.42,14.24,2.28,25,13.93,29.43,27.18,1.86,5.2,7.93,20.83,9.56,26,1.43,5.23,1.55,10.95-.44,16.04-.53,1.38-2.61,1.3-3.02-.12-1.83-6.32-3.28-12.06-5.79-17.98l-7.38-18.55c-1.17-2.88-2.26-5.93-3.83-8.57-1.76-3.25-4.14-6.1-6.79-8.59-8.49-7.51-19.57-8.88-29.31-2.94-15.71,9.26-20.19,30.91-14.15,47.33l.17,.48,.06,.34c.82,4.89,2.35,14.81,3.1,19.72,.66,5.12-6.75,6.45-7.88,1.36h0Z"/></g><g><path class="w" d="M162.44,142.34c-9.06,0-16.75-7.55-18.3-17.96l-14.74-99.48c-1.11-7.48,3.26-14.69,9.74-16.09l19.72-4.24c.75-.16,1.51-.24,2.26-.24,6,0,11.08,4.92,12.07,11.69l13.98,95.17c2.06,14.01-5.93,27.48-17.81,30.02l-3.59,.77c-1.1,.24-2.23,.36-3.35,.36Z"/><path d="M161.13,8.33c3.91,0,7.4,3.43,8.12,8.27l13.98,95.17c1.75,11.94-4.86,23.43-14.69,25.53l-3.59,.77c-.84,.18-1.68,.27-2.51,.27-6.9,0-13.08-6.03-14.34-14.55l-14.74-99.48c-.8-5.42,2.18-10.63,6.63-11.59l19.72-4.24c.48-.1,.95-.15,1.42-.15m0-8h0c-1.04,0-2.08,.11-3.1,.33l-19.72,4.24c-8.65,1.86-14.29,10.9-12.86,20.58l14.74,99.48c1.83,12.38,11.19,21.37,22.25,21.37,1.4,0,2.81-.15,4.18-.44l3.59-.77c13.9-2.97,23.29-18.46,20.93-34.52l-13.98-95.17c-1.29-8.75-8.03-15.11-16.03-15.11h0Z"/></g></g><g id="k"><g><path class="v" d="M309.88,178.7l3.4-19.67c7.67-19.79,.61-43.56-15.71-52.81l-1.25-.71c-16.33-9.26-35.96-.59-43.6,19.25l-9.57,24.84c-2.14,5.56-2.98,11.47-2.66,17.21"/><path d="M305.94,178.02c.72-4.94,2.3-14.8,3.1-19.72,2.05-5.94,3.23-12.26,2.73-18.59-.82-12.47-7.1-25.15-18.69-30.64-9.83-5.2-21.33-2.36-28.84,5.54-4.29,4.31-6.96,9.95-9.06,15.63-2.32,6.08-8.74,21.21-10.51,27.27-.92,2.94-1.66,5.98-2.66,9.25-.37,1.42-2.54,1.5-3.02,.13-2.68-6.79-1.48-14.43,1.28-21l6.97-18.71c2.35-6.82,5.47-13.48,10.58-18.74,8.58-9.24,21.91-13.69,34.14-9.81,17.74,5.68,27.93,22.57,28.86,40.55,.34,7.27-.87,14.6-3.51,21.4l.23-.82-1.81,9.82-1.89,9.8c-1.14,5.06-8.51,3.8-7.88-1.36h0Z"/></g><g><path class="w" d="M296.56,142.34c-1.12,0-2.24-.12-3.35-.36l-3.59-.77c-11.88-2.54-19.86-16.01-17.81-30.02l13.98-95.17c1-6.77,6.07-11.69,12.07-11.69,.76,0,1.52,.08,2.26,.24l19.72,4.24c6.48,1.39,10.85,8.61,9.74,16.09l-14.74,99.48c-1.54,10.41-9.24,17.96-18.29,17.96h0Z"/><path d="M297.87,8.33c.47,0,.94,.05,1.42,.15l19.72,4.24c4.45,.96,7.43,6.17,6.63,11.59l-14.74,99.48c-1.26,8.51-7.44,14.55-14.34,14.55-.83,0-1.67-.09-2.51-.27l-3.59-.77c-9.83-2.1-16.44-13.59-14.69-25.53l13.98-95.17c.71-4.84,4.21-8.27,8.12-8.27m0-8c-8,0-14.74,6.35-16.03,15.11l-13.98,95.17c-2.36,16.06,7.03,31.54,20.93,34.52l3.59,.77c1.38,.29,2.79,.44,4.18,.44,11.06,0,20.42-8.99,22.25-21.37l14.74-99.48c1.43-9.68-4.21-18.73-12.86-20.58l-19.72-4.24c-1.02-.22-2.06-.33-3.1-.33h0Z"/></g></g></g><g id="l"><path class="w" d="M291.48,351.87c-9.62,0-18.05-6.82-20.06-16.21-2.36-11.05,4.71-21.97,15.76-24.33l77.01-16.47-2.51-67.54c-.33-8.82,6.58-16.25,15.39-16.58l1.98-.07c.2,0,.4-.01,.6-.01,8.64,0,15.66,6.77,15.99,15.4l3.24,86.94c.18,4.89-1.94,9.65-5.71,12.82-2.96,3.71-7.1,6.29-11.71,7.28l-85.69,18.33c-1.41,.3-2.84,.45-4.27,.45h0Z"/><path d="M379.64,214.64c6.4,0,11.75,5.11,11.99,11.55l3.24,86.94c.15,3.97-1.68,7.56-4.59,9.86-2.31,3.05-5.66,5.32-9.67,6.18l-85.69,18.33c-1.15,.25-2.3,.36-3.44,.36-7.61,0-14.5-5.33-16.15-13.05h0c-1.9-8.87,3.81-17.69,12.68-19.59l80.29-17.18-2.64-70.9c-.25-6.59,4.95-12.19,11.54-12.44l1.98-.07c.15,0,.3,0,.45,0m0-8c-.25,0-.5,0-.75,.01l-1.98,.07c-5.33,.2-10.26,2.47-13.9,6.39s-5.54,9.01-5.34,14.34l2.39,64.18-73.72,15.77c-13.21,2.83-21.66,15.87-18.83,29.08,2.4,11.23,12.48,19.37,23.97,19.37,1.71,0,3.43-.18,5.11-.54l85.69-18.33c5.39-1.15,10.24-4.12,13.76-8.4,4.51-3.96,7.05-9.78,6.82-15.77l-3.24-86.94c-.4-10.8-9.18-19.26-19.98-19.26h0Z"/></g><g id="m"><path class="w" d="M168.52,351.87c-1.43,0-2.87-.15-4.27-.45l-85.69-18.33c-4.61-.99-8.75-3.56-11.71-7.28-3.76-3.17-5.89-7.93-5.71-12.82l3.24-86.94c.32-8.64,7.34-15.4,15.99-15.4,.2,0,.4,0,.6,.01l1.98,.07c8.82,.33,15.72,7.77,15.39,16.58l-2.51,67.54,77.01,16.47c11.05,2.36,18.12,13.28,15.76,24.33-2.01,9.39-10.45,16.21-20.06,16.21Z"/><path d="M80.36,214.64c.15,0,.3,0,.45,0l1.98,.07c6.59,.25,11.79,5.84,11.54,12.44l-2.64,70.9,80.29,17.18c8.87,1.9,14.58,10.71,12.68,19.59h0c-1.65,7.72-8.54,13.05-16.15,13.05-1.13,0-2.28-.12-3.44-.36l-85.69-18.33c-4.01-.86-7.36-3.13-9.67-6.18-2.91-2.3-4.74-5.89-4.59-9.86l3.24-86.94c.24-6.44,5.59-11.55,11.99-11.55m0-8h0c-10.8,0-19.58,8.46-19.98,19.26l-3.24,86.94c-.22,5.99,2.31,11.8,6.82,15.77,3.52,4.28,8.36,7.24,13.76,8.4l85.69,18.33c1.68,.36,3.4,.54,5.11,.54,11.49,0,21.57-8.15,23.97-19.37,2.83-13.21-5.62-26.26-18.83-29.08l-73.72-15.77,2.39-64.18c.2-5.32-1.7-10.42-5.34-14.34s-8.58-6.19-13.9-6.39l-1.98-.07c-.25,0-.5-.01-.75-.01h0Z"/></g><g id="n"><ellipse class="w" cx="229.6" cy="362.21" rx="56.5" ry="57.5"/><path d="M229.6,308.71c28.99,0,52.5,23.95,52.5,53.5s-23.51,53.5-52.5,53.5-52.5-23.95-52.5-53.5,23.51-53.5,52.5-53.5m0-8c-33.36,0-60.5,27.59-60.5,61.5s27.14,61.5,60.5,61.5,60.5-27.59,60.5-61.5-27.14-61.5-60.5-61.5h0Z"/></g></g><g id="o"><g class="aa"><g><rect class="ad" x="240.83" y="15.22" width="8.24" height="36.07" rx="2.53" ry="2.53" transform="translate(116.61 -178.02) rotate(50.99)"/><rect class="x" x="301.29" y="-6.33" width="8.29" height="36.28" rx="2.54" ry="2.54" transform="translate(12.48 -75.42) rotate(14.37)"/><rect class="q" x="248.95" y="80.91" width="9.62" height="42.08" rx="2.95" ry="2.95" transform="translate(149.04 -150.68) rotate(45.6)"/><rect class="ad" x="302.64" y="66.98" width="9.58" height="41.92" rx="2.94" ry="2.94" transform="translate(6.96 -21.44) rotate(4.04)"/><rect class="t" x="353.37" y="42.89" width="7.92" height="34.67" rx="2.43" ry="2.43" transform="translate(-4.66 43.63) rotate(-6.94)"/><rect class="ad" x="402.92" y="7.52" width="9.45" height="41.34" rx="2.9" ry="2.9" transform="translate(.69 65.06) rotate(-9.13)"/><rect class="q" x="464.16" y="-21.18" width="9.63" height="42.12" rx="2.95" ry="2.95" transform="translate(275.91 427.28) rotate(-65.68)"/><rect class="t" x="286.46" y="115.97" width="8.32" height="36.41" rx="2.55" ry="2.55" transform="translate(227.08 447.9) rotate(-103.33)"/><rect class="ad" x="337.71" y="95.12" width="9.59" height="41.94" rx="2.94" ry="2.94" transform="translate(256.49 -235.18) rotate(57.52)"/><rect class="x" x="401.54" y="80.28" width="7.33" height="32.06" rx="2.25" ry="2.25" transform="translate(19.65 -61.21) rotate(8.85)"/><rect class="q" x="452.5" y="48.37" width="6.97" height="30.5" rx="2.14" ry="2.14" transform="translate(334.64 507.74) rotate(-82.66)"/><rect class="u" x="287.97" y="192.07" width="6.96" height="30.44" rx="2.13" ry="2.13" transform="translate(42.76 -49.74) rotate(10.52)"/><rect class="ad" x="356.33" y="180.25" width="8.63" height="37.77" rx="2.65" ry="2.65" transform="translate(365.86 -212.8) rotate(61.82)"/><rect class="x" x="394.57" y="147.59" width="8.59" height="37.59" rx="2.64" ry="2.64" transform="translate(37.43 -70.56) rotate(10.6)"/><rect class="ad" x="352.57" y="236.49" width="9.44" height="41.29" rx="2.89" ry="2.89" transform="translate(6.74 -9.11) rotate(1.47)"/><rect class="x" x="406.63" y="202.87" width="9.27" height="40.57" rx="2.84" ry="2.84" transform="translate(-54.1 174.45) rotate(-22.51)"/><rect class="ac" x="335.84" y="316.69" width="7.04" height="30.79" rx="2.16" ry="2.16" transform="translate(-41.08 47.98) rotate(-7.63)"/><rect class="q" x="405.09" y="281.23" width="9.32" height="40.77" rx="2.86" ry="2.86" transform="translate(224.8 775.61) rotate(-105.04)"/><rect class="ac" x="443.21" y="261.62" width="8.63" height="37.76" rx="2.65" ry="2.65" transform="translate(-56.13 439.53) rotate(-49.6)"/><rect class="x" x="390.63" y="350.69" width="6.94" height="30.36" rx="2.13" ry="2.13" transform="translate(124 -99.13) rotate(16.98)"/><rect class="x" x="444.89" y="314.1" width="9.74" height="42.63" rx="2.99" ry="2.99" transform="translate(-73.39 538.15) rotate(-57.9)"/><rect class="q" x="400.69" y="421.46" width="8.43" height="36.88" rx="2.59" ry="2.59" transform="translate(-130.34 706.31) rotate(-73.83)"/><rect class="t" x="446.45" y="386.68" width="8.69" height="38.02" rx="2.67" ry="2.67" transform="translate(120.64 -103.04) rotate(15.03)"/><rect class="t" x="456.18" y="453.04" width="9.66" height="42.27" rx="2.96" ry="2.96" transform="translate(-198.41 524.47) rotate(-50.17)"/></g></g></g></svg>