<?xml version="1.0" encoding="UTF-8"?><svg xmlns="http://www.w3.org/2000/svg" xmlns:xlink="http://www.w3.org/1999/xlink" viewBox="0 0 460 460"><defs><style>.j{fill:aqua;}.k{fill:#ff99ec;}.l{fill:#662d91;}.m{fill:blue;}.n{fill:#ffc7c7;}.o{fill:#c43d3d;}.p{clip-path:url(#e);}.q{fill:lime;}.r,.s{fill:none;}.t{fill:#262626;stroke:#000;stroke-width:5px;}.t,.s{stroke-miterlimit:10;}.s{stroke:#701b1b;stroke-width:2px;}.u{fill:red;}.v{clip-path:url(#g);}.w{fill:#ff0;}</style><clipPath id="e"><path class="r" d="M-275.9,10c-121.5,0-220,98.5-220,220s98.5,220,220,220S-55.9,351.5-55.9,230-154.4,10-275.9,10Zm0,320c-55.23,0-100-44.77-100-100s44.77-100,100-100,100,44.77,100,100-44.77,100-100,100Z"/></clipPath><clipPath id="g"><path class="r" d="M230,10C108.5,10,10,108.5,10,230s98.5,220,220,220,220-98.5,220-220S351.5,10,230,10Zm0,320c-55.23,0-100-44.77-100-100s44.77-100,100-100,100,44.77,100,100-44.77,100-100,100Z"/></clipPath></defs><g id="a"/><g id="b"/><g id="c"/><g id="d"><g class="p"><g><rect class="m" x="-6.76" y="309.78" width="4.79" height="20.97" rx="1.41" ry="1.41" transform="translate(80.43 11.4) rotate(14.57)"/><rect class="q" x="13.93" y="331.88" width="5.37" height="23.51" rx="2.65" ry="2.65" transform="translate(146.28 24.97) rotate(24.91)"/><rect class="w" x="11.78" y="364.11" width="5.93" height="25.96" rx="2.93" ry="2.93" transform="translate(-283.82 146.28) rotate(-50.05)"/></g></g></g><g id="f"><g><path class="k" d="M230,455c-60.1,0-116.6-23.4-159.1-65.9C28.4,346.6,5,290.1,5,230S28.4,113.4,70.9,70.9C113.4,28.4,169.9,5,230,5s116.6,23.4,159.1,65.9c42.5,42.5,65.9,99,65.9,159.1s-23.4,116.6-65.9,159.1c-42.5,42.5-99,65.9-159.1,65.9Zm0-320c-52.38,0-95,42.62-95,95s42.62,95,95,95,95-42.62,95-95-42.62-95-95-95Z"/><path d="M230,10c121.5,0,220,98.5,220,220s-98.5,220-220,220S10,351.5,10,230,108.5,10,230,10m0,320c55.23,0,100-44.77,100-100s-44.77-100-100-100-100,44.77-100,100,44.77,100,100,100M230,0C198.95,0,168.83,6.08,140.47,18.08c-27.39,11.58-51.99,28.17-73.11,49.29-21.12,21.12-37.7,45.72-49.29,73.11C6.08,168.83,0,198.95,0,230s6.08,61.17,18.08,89.53c11.58,27.39,28.17,51.99,49.29,73.11,21.12,21.12,45.72,37.7,73.11,49.29,28.36,12,58.48,18.08,89.53,18.08s61.17-6.08,89.53-18.08c27.39-11.58,51.99-28.17,73.11-49.29,21.12-21.12,37.7-45.72,49.29-73.11,12-28.36,18.08-58.48,18.08-89.53s-6.08-61.17-18.08-89.53c-11.58-27.39-28.17-51.99-49.29-73.11s-45.72-37.7-73.11-49.29C291.17,6.08,261.05,0,230,0h0Zm0,320c-49.63,0-90-40.37-90-90s40.37-90,90-90,90,40.37,90,90-40.37,90-90,90h0Z"/></g><g class="v"><g><rect class="w" x="9.83" y="35.2" width="7.27" height="31.79" rx="2.23" ry="2.23" transform="translate(-25.17 15.04) rotate(-32.22)"/><rect class="w" x="54.48" y="-14.23" width="8.76" height="38.33" rx="2.69" ry="2.69" transform="translate(31.21 57.13) rotate(-66.87)"/><rect class="w" x="120.95" y="-23.56" width="7.54" height="33" rx="2.31" ry="2.31" transform="translate(62.8 101.44) rotate(-57.05)"/><rect class="q" x="-3.04" y="81.99" width="9.59" height="41.97" rx="2.94" ry="2.94" transform="translate(-7.51 .4) rotate(-4.18)"/><rect class="m" x="52.65" y="80.12" width="7.7" height="33.68" rx="2.36" ry="2.36" transform="translate(-12.59 185.4) rotate(-111.78)"/><rect class="l" x="110.64" y="32.28" width="7.87" height="34.45" rx="2.42" ry="2.42" transform="translate(-8.94 67.46) rotate(-31.64)"/><rect class="q" x="165.79" y="2.74" width="8.55" height="37.41" rx="2.62" ry="2.62" transform="translate(77.1 -122.57) rotate(49.97)"/><rect class="m" x="234.3" y="2.5" width="7.13" height="31.2" rx="2.19" ry="2.19" transform="translate(248.81 256.4) rotate(-96.98)"/><rect class="w" x="-.26" y="169.44" width="8.78" height="38.41" rx="2.69" ry="2.69" transform="translate(-106.64 35.89) rotate(-34.69)"/><rect class="w" x="68.13" y="134.76" width="7.35" height="32.17" rx="2.26" ry="2.26" transform="translate(94.71 -14.64) rotate(33.34)"/><rect class="w" x="120.56" y="115.46" width="7.4" height="32.39" rx="2.27" ry="2.27" transform="translate(-40.31 56.23) rotate(-22.03)"/><rect class="w" x="161.42" y="73.81" width="8.43" height="36.86" rx="2.58" ry="2.58" transform="translate(-14.31 151.93) rotate(-47.47)"/><rect class="m" x="230.65" y="55.73" width="7.92" height="34.66" rx="2.43" ry="2.43" transform="translate(-3.8 13.55) rotate(-3.28)"/><rect class="j" x="281.6" y="40.39" width="9.69" height="42.39" rx="2.97" ry="2.97" transform="translate(101.24 -165.44) rotate(38.66)"/><rect class="u" x="328.31" y="1.65" width="8.49" height="37.15" rx="2.6" ry="2.6" transform="translate(137.45 290.29) rotate(-57.63)"/><rect class="j" x="403.01" y="-12.65" width="9.32" height="40.78" rx="2.86" ry="2.86" transform="translate(114.36 290.98) rotate(-45.09)"/><rect class="m" x="13.04" y="227.06" width="8.24" height="36.06" rx="2.53" ry="2.53" transform="translate(-218.45 175.46) rotate(-69.53)"/><rect class="j" x="52.29" y="216.77" width="6.93" height="30.33" rx="2.13" ry="2.13" transform="translate(-75.92 33.03) rotate(-19.99)"/><rect class="m" x="122.57" y="189.32" width="8.59" height="37.57" rx="2.63" ry="2.63" transform="translate(-99.15 299.3) rotate(-80.61)"/><rect class="q" x="169.25" y="140.81" width="7.97" height="34.88" rx="2.45" ry="2.45" transform="translate(98.72 380.74) rotate(-113.9)"/><rect class="w" x="237.58" y="133.02" width="8" height="35.02" rx="2.46" ry="2.46" transform="translate(-42.93 142) rotate(-30.21)"/><rect class="j" x="279.15" y="89.87" width="7.87" height="34.42" rx="2.41" ry="2.41" transform="translate(10.79 -25.05) rotate(5.17)"/><rect class="u" x="336.53" y="74.49" width="8.51" height="37.24" rx="2.61" ry="2.61" transform="translate(234.31 -243.74) rotate(57.18)"/><rect class="w" x="384.27" y="51.69" width="7.16" height="31.33" rx="2.2" ry="2.2" transform="translate(269.73 -308.16) rotate(62.69)"/><rect class="j" x="457.6" y="9.12" width="9.74" height="42.61" rx="2.99" ry="2.99" transform="translate(281.38 -396.2) rotate(63.24)"/><rect class="q" x="10.99" y="286.75" width="8.46" height="37" rx="2.59" ry="2.59" transform="translate(-8.5 .54) rotate(-1.6)"/><rect class="q" x="64.37" y="266.69" width="9.05" height="39.58" rx="2.78" ry="2.78" transform="translate(251.48 55.23) rotate(51.82)"/><rect class="q" x="122.73" y="257.4" width="8.06" height="35.27" rx="2.47" ry="2.47" transform="translate(321.28 42.92) rotate(64.71)"/><rect class="w" x="159" y="226.72" width="9.02" height="39.46" rx="2.77" ry="2.77" transform="translate(-47.89 39.61) rotate(-12.06)"/><rect class="w" x="229" y="192.28" width="9.01" height="39.43" rx="2.76" ry="2.76" transform="translate(81.23 -64.19) rotate(18.89)"/><rect class="q" x="282.07" y="163.82" width="9.38" height="41.02" rx="2.88" ry="2.88" transform="translate(242.65 -153.7) rotate(49.83)"/><rect class="m" x="339.89" y="137.75" width="8.86" height="38.78" rx="2.72" ry="2.72" transform="translate(124.35 465.14) rotate(-79)"/><rect class="m" x="389.93" y="121.28" width="9.69" height="42.41" rx="2.97" ry="2.97" transform="translate(86.42 -142.23) rotate(22.87)"/><rect class="w" x="432.9" y="80.48" width="9.59" height="41.97" rx="2.94" ry="2.94" transform="translate(400.06 549.19) rotate(-98.25)"/><rect class="j" x="-12.99" y="365.94" width="9.67" height="42.3" rx="2.97" ry="2.97" transform="translate(-105.79 12.43) rotate(-15.81)"/><rect class="w" x="46.62" y="329.6" width="9.03" height="39.51" rx="2.77" ry="2.77" transform="translate(-275.9 216.27) rotate(-59.53)"/><rect class="j" x="108.73" y="299.78" width="9.62" height="42.07" rx="2.95" ry="2.95" transform="translate(-140.44 94.31) rotate(-28.78)"/><rect class="w" x="155.72" y="284.9" width="9.13" height="39.96" rx="2.8" ry="2.8" transform="translate(205.24 -36.62) rotate(35.23)"/><rect class="l" x="222.64" y="263.25" width="8.42" height="36.85" rx="2.58" ry="2.58" transform="translate(337.49 -62.65) rotate(56.66)"/><rect class="j" x="280.77" y="239" width="8.47" height="37.03" rx="2.6" ry="2.6" transform="translate(206.05 -118.39) rotate(36.04)"/><rect class="j" x="327.7" y="214.96" width="8.88" height="38.84" rx="2.72" ry="2.72" transform="translate(140.08 592.66) rotate(-97.02)"/><rect class="m" x="376.12" y="187.9" width="7.45" height="32.62" rx="2.29" ry="2.29" transform="translate(18.59 -31.33) rotate(4.84)"/><rect class="u" x="433.47" y="170.4" width="7.63" height="33.39" rx="2.34" ry="2.34" transform="translate(-38.25 196.8) rotate(-24.33)"/><rect class="l" x="2.54" y="445.63" width="7.22" height="31.59" rx="2.22" ry="2.22" transform="translate(-418.18 280.06) rotate(-66.09)"/><rect class="w" x="59.27" y="397.37" width="8.38" height="36.67" rx="2.57" ry="2.57" transform="translate(-351.13 486.1) rotate(-90.96)"/><rect class="w" x="116.95" y="379.15" width="8.44" height="36.92" rx="2.59" ry="2.59" transform="translate(-262.32 237.26) rotate(-50.36)"/><rect class="m" x="151.96" y="349.69" width="8.85" height="38.73" rx="2.72" ry="2.72" transform="translate(254.6 -19.55) rotate(37.15)"/><rect class="w" x="229.48" y="325.93" width="6.96" height="30.46" rx="2.14" ry="2.14" transform="translate(-58.67 48.56) rotate(-10.58)"/><rect class="u" x="270.08" y="318.92" width="7.09" height="31.01" rx="2.17" ry="2.17" transform="translate(424.65 -70.42) rotate(59.75)"/><rect class="q" x="326.37" y="277.12" width="7.09" height="31.02" rx="2.18" ry="2.18" transform="translate(-106.31 357.33) rotate(-50.01)"/><rect class="u" x="377.93" y="260.28" width="6.88" height="30.08" rx="2.11" ry="2.11" transform="translate(66.81 -74.39) rotate(12.2)"/><rect class="u" x="440.64" y="221.99" width="7.57" height="33.12" rx="2.32" ry="2.32" transform="translate(283.03 -239.34) rotate(43.11)"/><rect class="q" x="118.07" y="449.85" width="7.21" height="31.56" rx="2.21" ry="2.21" transform="translate(-247.22 156.55) rotate(-35.4)"/><rect class="w" x="157.13" y="415.47" width="7.98" height="34.91" rx="2.45" ry="2.45" transform="translate(-265.51 610.04) rotate(-92.13)"/><rect class="w" x="213.76" y="405.59" width="9.48" height="41.5" rx="2.91" ry="2.91" transform="translate(77 -31.36) rotate(9.96)"/><rect class="j" x="272.51" y="378.32" width="8.31" height="36.36" rx="2.55" ry="2.55" transform="translate(366.03 -78.65) rotate(45.56)"/><rect class="q" x="335.83" y="357.98" width="8.13" height="35.59" rx="2.5" ry="2.5" transform="translate(17.85 -15.41) rotate(2.67)"/><rect class="m" x="382.49" y="311.84" width="9.17" height="40.14" rx="2.81" ry="2.81" transform="translate(-109.55 216.35) rotate(-27.51)"/><rect class="m" x="441.43" y="291.75" width="8.74" height="38.22" rx="2.68" ry="2.68" transform="translate(224.56 807.27) rotate(-100.87)"/><rect class="l" x="279.5" y="438.43" width="9.65" height="42.23" rx="2.96" ry="2.96" transform="translate(-11.09 7.05) rotate(-1.39)"/><rect class="m" x="320.95" y="425.61" width="8.6" height="37.64" rx="2.64" ry="2.64" transform="translate(46.2 919.22) rotate(-113.36)"/><rect class="m" x="381.87" y="381.74" width="8.26" height="36.12" rx="2.53" ry="2.53" transform="translate(10.47 809.45) rotate(-93.49)"/><rect class="j" x="442.77" y="369.31" width="7.84" height="34.3" rx="2.4" ry="2.4" transform="translate(204.99 925.42) rotate(-106.71)"/><rect class="j" x="388.9" y="455.36" width="8.85" height="38.73" rx="2.72" ry="2.72" transform="translate(231.28 -120.1) rotate(24.4)"/><rect class="l" x="442.78" y="439.14" width="8.45" height="36.97" rx="2.59" ry="2.59" transform="translate(84.38 984.63) rotate(-101.14)"/></g></g><g><g><g id="h"><path class="n" d="M285.56,253.81c-10.37,0-19.47-7.35-21.64-17.48-2.55-11.92,5.07-23.69,16.99-26.24l93.36-19.97-3.06-82.16c-.34-9.23,6.89-17.03,16.12-17.37l2.35-.09c.21,0,.42-.01,.63-.01,8.9,0,16.41,7.24,16.75,16.14l3.85,103.32c.19,5.19-2.1,10.24-6.15,13.57-3.2,4.1-7.72,6.95-12.76,8.03l-101.83,21.78c-1.52,.32-3.06,.49-4.6,.49h0Z"/><path d="M390.32,92.99c7.6,0,13.96,6.07,14.25,13.73l3.85,103.32c.18,4.71-2,8.99-5.46,11.72-2.74,3.62-6.72,6.32-11.49,7.34l-101.83,21.78c-1.37,.29-2.73,.43-4.08,.43-9.04,0-17.23-6.33-19.19-15.51h0c-2.26-10.55,4.53-21.02,15.07-23.28l95.42-20.41-3.14-84.25c-.29-7.84,5.88-14.49,13.72-14.78l2.35-.09c.18,0,.36,0,.53,0m0-5c-.24,0-.48,0-.72,.01l-2.35,.09c-5.12,.19-9.88,2.38-13.39,6.16-3.51,3.78-5.33,8.68-5.14,13.81l2.98,80.06-91.31,19.53c-13.27,2.84-21.75,15.94-18.92,29.21,2.41,11.28,12.54,19.46,24.08,19.46,1.72,0,3.44-.18,5.13-.54l101.83-21.78c5.53-1.18,10.49-4.27,14.04-8.72,4.52-3.82,7.07-9.54,6.85-15.42l-3.85-103.32c-.39-10.4-8.84-18.54-19.24-18.54h0Z"/></g><g id="i"><path class="n" d="M174.44,253.81c-1.54,0-3.09-.16-4.61-.49l-101.83-21.78c-5.04-1.08-9.56-3.93-12.76-8.03-4.05-3.33-6.35-8.38-6.15-13.57l3.85-103.32c.33-8.9,7.84-16.14,16.74-16.14,.21,0,.42,0,.63,.01l2.35,.09c9.24,.34,16.47,8.14,16.12,17.37l-3.06,82.16,93.36,19.97c11.92,2.55,19.54,14.32,16.99,26.24-2.17,10.13-11.27,17.48-21.64,17.48Z"/><path d="M69.68,92.99c.18,0,.35,0,.53,0l2.35,.09c7.84,.29,14.01,6.94,13.72,14.78l-3.14,84.25,95.42,20.41c10.55,2.26,17.33,12.73,15.07,23.28h0c-1.96,9.18-10.15,15.51-19.19,15.51-1.35,0-2.71-.14-4.08-.43l-101.83-21.78c-4.76-1.02-8.74-3.72-11.49-7.34-3.46-2.73-5.63-7-5.46-11.72l3.85-103.32c.29-7.66,6.64-13.73,14.25-13.73m0-5h0c-10.4,0-18.86,8.15-19.24,18.54l-3.85,103.32c-.22,5.88,2.33,11.6,6.85,15.42,3.55,4.45,8.51,7.54,14.04,8.72l101.83,21.78c1.69,.36,3.41,.54,5.13,.54,11.54,0,21.67-8.18,24.08-19.46,2.84-13.27-5.65-26.37-18.92-29.21l-91.31-19.53,2.98-80.06c.19-5.12-1.64-10.03-5.14-13.81-3.51-3.78-8.26-5.96-13.39-6.16l-2.35-.09c-.24,0-.48-.01-.72-.01h0Z"/></g></g><g><path class="t" d="M241.28,322.71h-23.28c-21.42,0-40.88-18.33-43.72-43.15l-3.95-34.56c-2.04-17.84,8.68-33.23,24.08-33.23h70.47c15.39,0,26.12,15.39,24.08,33.23l-3.95,34.56c-2.84,24.82-22.3,43.15-43.72,43.15Z"/><g><path class="o" d="M229.65,288.67c-33.35,0-60.49-27.63-60.49-61.58,0-28.89,19.29-53.57,46.9-60.02,4.45-1.03,9.02-1.56,13.58-1.56,4.96,0,9.91,.62,14.69,1.83,26.96,6.86,45.78,31.43,45.78,59.75,0,33.96-27.13,61.58-60.47,61.58Z"/><path d="M229.65,168.01c4.85,0,9.57,.61,14.08,1.75,25.21,6.42,43.9,29.64,43.9,57.33,0,32.64-25.96,59.08-57.97,59.08s-57.98-26.45-57.98-59.08c0-28.08,19.22-51.57,44.97-57.59,4.19-.97,8.54-1.49,13.01-1.49m0-5c-4.75,0-9.51,.55-14.15,1.62-13.68,3.2-26.08,11.11-34.93,22.29-8.97,11.33-13.91,25.59-13.91,40.17,0,35.34,28.25,64.08,62.98,64.08s62.97-28.75,62.97-64.08c0-29.47-19.6-55.03-47.66-62.17-4.99-1.27-10.14-1.91-15.31-1.91h0Z"/></g><line class="s" x1="229.71" y1="168.94" x2="229.71" y2="285.24"/><line class="s" x1="179.35" y1="198.01" x2="280.06" y2="256.16"/><line class="s" x1="179.35" y1="256.16" x2="280.06" y2="198.01"/><g><path class="n" d="M229.69,181.49c-11.06,0-12.81-.89-15.59-7.96l-.2-.51c-.3-.75-.25-1.6,.12-2.32,.38-.72,1.05-1.24,1.85-1.42,4.34-.98,8.8-1.48,13.24-1.48,4.85,0,9.68,.59,14.36,1.75,.79,.19,1.45,.72,1.82,1.45,.37,.73,.4,1.57,.09,2.32l-.16,.4c-2.87,6.97-4.46,7.77-15.52,7.77Z"/><path d="M229.11,170.3c4.74,0,9.35,.58,13.76,1.67,.17,.04,.26,.23,.2,.39-2.45,5.94-2.47,6.63-13.38,6.63s-11.06-.81-13.47-6.89c-.06-.16,.03-.35,.2-.39,4.09-.93,8.34-1.42,12.69-1.42m0-5c-4.63,0-9.27,.52-13.79,1.54-1.51,.34-2.79,1.32-3.51,2.69-.72,1.37-.81,2.98-.24,4.41l.2,.5c1.24,3.15,2.42,6.13,5.76,7.88,2.7,1.42,5.93,1.66,12.16,1.66s9.38-.23,12.01-1.57c3.33-1.7,4.49-4.51,5.82-7.75l.17-.4c.59-1.42,.52-3.03-.17-4.4-.7-1.37-1.95-2.37-3.45-2.74-4.88-1.21-9.91-1.82-14.96-1.82h0Z"/></g></g></g></g></svg>