<svg xmlns="http://www.w3.org/2000/svg" xmlns:xlink="http://www.w3.org/1999/xlink" viewBox="0 0 460 460"><defs><style>.cls-1{fill:none;}.cls-2{clip-path:url(#clip-path);}.cls-3{fill:lime;}.cls-4{fill:#ff0;}.cls-5{fill:#ff99ec;}.cls-6{clip-path:url(#clip-path-2);}.cls-7{fill:blue;}.cls-8{fill:aqua;}.cls-9{fill:red;}.cls-10{fill:#662d91;}</style><clipPath id="clip-path"><path class="cls-1" d="M-276,36c-121.5,0-220,98.5-220,220s98.5,220,220,220S-56,377.5-56,256-154.5,36-276,36Zm0,320A100,100,0,0,1-376,256,100,100,0,0,1-276,156,100,100,0,0,1-176,256,100,100,0,0,1-276,356Z"/></clipPath><clipPath id="clip-path-2"><path class="cls-1" d="M230,10C108.5,10,10,108.5,10,230s98.5,220,220,220,220-98.5,220-220S351.5,10,230,10Zm0,320A100,100,0,1,1,330,230,100,100,0,0,1,230,330Z"/></clipPath></defs><g id="Layer_1" data-name="Layer 1"><g class="cls-2"><rect class="cls-3" x="13.83" y="357.88" width="5.37" height="23.51" rx="2.65" transform="translate(157.22 27.43) rotate(24.91)"/><rect class="cls-4" x="11.68" y="390.11" width="5.93" height="25.96" rx="2.93" transform="translate(-303.78 155.51) rotate(-50.05)"/></g></g><g id="Layer_3" data-name="Layer 3"><path class="cls-5" d="M230,455A225,225,0,0,1,70.9,70.9,225,225,0,0,1,389.1,389.1,223.52,223.52,0,0,1,230,455Zm0-320a95,95,0,1,0,95,95A95.11,95.11,0,0,0,230,135Z"/><path d="M230,10c121.5,0,220,98.5,220,220S351.5,450,230,450,10,351.5,10,230,108.5,10,230,10m0,320A100,100,0,1,0,130,230,100,100,0,0,0,230,330M230,0A229.92,229.92,0,0,0,67.37,392.63,230,230,0,1,0,319.53,18.08,228.48,228.48,0,0,0,230,0Zm0,320a90,90,0,1,1,90-90,90.1,90.1,0,0,1-90,90Z"/><g class="cls-6"><rect class="cls-4" x="-8.59" y="82.9" width="4.66" height="20.37" rx="2.3" transform="translate(-99.54 94.73) rotate(-94.86)"/><rect class="cls-3" x="29.54" y="56.81" width="4.53" height="19.82" rx="2.23" transform="translate(69.38 3.07) rotate(56.05)"/><rect class="cls-3" x="64.16" y="46.95" width="4.72" height="20.64" rx="2.33" transform="translate(-1.68 112.54) rotate(-79.75)"/><rect class="cls-7" x="95.15" y="27.98" width="4.38" height="19.16" rx="2.16" transform="matrix(0.55, 0.84, -0.84, 0.55, 75.21, -64.4)"/><rect class="cls-7" x="119.05" y="13.86" width="4.89" height="21.39" rx="2.41" transform="translate(4.11 64.38) rotate(-30.17)"/><rect class="cls-4" x="154.96" y="-13.19" width="5.34" height="23.36" rx="2.63" transform="translate(3.11 29.68) rotate(-10.86)"/><rect class="cls-8" x="198.55" y="-19.11" width="4.82" height="21.07" rx="2.37" transform="translate(13.44 64.2) rotate(-18.77)"/><rect class="cls-4" x="19.69" y="101.21" width="5.88" height="25.72" rx="2.9" transform="translate(-17.82 5.04) rotate(-9.13)"/><rect class="cls-8" x="57.79" y="83.35" width="5.99" height="26.21" rx="2.95" transform="translate(-52.15 112.12) rotate(-65.68)"/><rect class="cls-3" x="90.12" y="68.03" width="5.67" height="24.82" rx="2.8" transform="translate(-20.83 126.96) rotate(-63.11)"/><rect class="cls-3" x="121.45" y="47.58" width="4.83" height="21.15" rx="2.38" transform="translate(-12.74 50.2) rotate(-21.82)"/><rect class="cls-7" x="155.59" y="41.95" width="4.36" height="19.1" rx="2.15" transform="translate(4.41 114.93) rotate(-40.55)"/><rect class="cls-7" x="197.82" y="22.26" width="4.33" height="18.94" rx="2.13" transform="translate(41.6 -94.43) rotate(29.52)"/><rect class="cls-4" x="235.63" y="2.4" width="5.88" height="25.72" rx="2.9" transform="translate(201.09 251.35) rotate(-84.64)"/><rect class="cls-8" x="263.13" y="-12.92" width="4.75" height="20.78" rx="2.34" transform="translate(65.84 -177.56) rotate(41.78)"/><rect class="cls-3" x="18.83" y="146.48" width="4.56" height="19.95" rx="2.25" transform="translate(24.33 -1.39) rotate(8.85)"/><rect class="cls-8" x="50.54" y="126.62" width="4.34" height="18.98" rx="2.14" transform="translate(-89.02 171) rotate(-82.66)"/><rect class="cls-4" x="89.87" y="118.43" width="4.52" height="19.78" rx="2.23" transform="translate(-54.23 68.87) rotate(-32.22)"/><rect class="cls-4" x="117.66" y="87.67" width="5.45" height="23.85" rx="2.69" transform="translate(-18.49 171.19) rotate(-66.87)"/><rect class="cls-4" x="159.01" y="81.87" width="4.69" height="20.53" rx="2.31" transform="translate(-3.73 177.42) rotate(-57.05)"/><rect class="cls-3" x="191.79" y="64.31" width="4.68" height="20.5" rx="2.31" transform="translate(25.57 -47.23) rotate(14.84)"/><rect class="cls-3" x="222.98" y="52.6" width="6.08" height="26.6" rx="3" transform="translate(6.02 149.72) rotate(-37.11)"/><rect class="cls-4" x="263.55" y="30" width="5.68" height="24.83" rx="2.8" transform="translate(69.02 226.29) rotate(-52.02)"/><rect class="cls-9" x="295.6" y="14.3" width="5.94" height="26.01" rx="2.93" transform="translate(102.11 -199.18) rotate(43.83)"/><rect class="cls-7" x="337.1" y="-2.8" width="5.74" height="25.11" rx="2.83" transform="translate(11.13 96.58) rotate(-16.43)"/><rect class="cls-4" x="-9.3" y="208.68" width="5.37" height="23.5" rx="2.65" transform="translate(190.81 122.16) rotate(61.82)"/><rect class="cls-3" x="14.49" y="188.35" width="5.35" height="23.39" rx="2.64" transform="translate(37.11 0.26) rotate(10.6)"/><rect class="cls-3" x="56.74" y="166.7" width="5.49" height="24.03" rx="2.71" transform="translate(9.37 -2.85) rotate(2.98)"/><rect class="cls-3" x="81.87" y="147.54" width="5.97" height="26.11" rx="2.94" transform="translate(-11.49 6.62) rotate(-4.18)"/><rect class="cls-7" x="116.52" y="146.38" width="4.79" height="20.96" rx="2.36" transform="translate(17.36 325.48) rotate(-111.78)"/><rect class="cls-10" x="152.6" y="116.61" width="4.9" height="21.43" rx="2.42" transform="matrix(0.85, -0.52, 0.52, 0.85, -43.75, 100.26)"/><rect class="cls-3" x="186.91" y="98.23" width="5.32" height="23.27" rx="2.62" transform="translate(151.77 -105.95) rotate(49.97)"/><rect class="cls-7" x="229.54" y="98.09" width="4.44" height="19.41" rx="2.19" transform="translate(152.93 350.93) rotate(-96.98)"/><rect class="cls-3" x="261.52" y="76.71" width="5.98" height="26.15" rx="2.95" transform="translate(256.72 368.99) rotate(-107.15)"/><rect class="cls-3" x="288.91" y="58.46" width="4.56" height="19.96" rx="2.25" transform="translate(118.16 312.44) rotate(-67.88)"/><rect class="cls-9" x="335.21" y="37.05" width="5.38" height="23.52" rx="2.65" transform="translate(3.72 118.7) rotate(-20.03)"/><rect class="cls-7" x="361.17" y="29.26" width="5.47" height="23.94" rx="2.7" transform="translate(18.39 -80.21) rotate(12.9)"/><rect class="cls-3" x="21.99" y="222.75" width="5.77" height="25.24" rx="2.84" transform="translate(-88.21 27.46) rotate(-22.51)"/><rect class="cls-10" x="57.7" y="205.51" width="5.92" height="25.91" rx="2.92" transform="translate(22.42 -5.02) rotate(5.81)"/><rect class="cls-4" x="83.6" y="201.95" width="5.46" height="23.9" rx="2.69" transform="translate(-106.4 87.17) rotate(-34.69)"/><rect class="cls-4" x="126.15" y="180.38" width="4.58" height="20.02" rx="2.26" transform="translate(125.76 -39.26) rotate(33.34)"/><rect class="cls-4" x="158.77" y="168.37" width="4.61" height="20.15" rx="2.27" transform="translate(-55.17 73.45) rotate(-22.03)"/><rect class="cls-4" x="184.19" y="142.45" width="5.24" height="22.94" rx="2.58" transform="translate(-52.9 187.52) rotate(-47.47)"/><rect class="cls-7" x="227.27" y="131.2" width="4.93" height="21.56" rx="2.43" transform="translate(-7.75 13.39) rotate(-3.28)"/><rect class="cls-8" x="258.97" y="121.66" width="6.03" height="26.38" rx="2.97" transform="translate(141.64 -134.11) rotate(38.66)"/><rect class="cls-9" x="288.03" y="97.55" width="5.28" height="23.11" rx="2.6" transform="translate(42.91 296.21) rotate(-57.63)"/><rect class="cls-8" x="334.5" y="88.66" width="5.8" height="25.37" rx="2.86" transform="translate(27.41 268.73) rotate(-45.09)"/><rect class="cls-4" x="367.05" y="67.72" width="5.55" height="24.28" rx="2.74" transform="translate(41.76 -108.61) rotate(17.69)"/><rect class="cls-4" x="401.55" y="45.3" width="5.91" height="25.88" rx="2.92" transform="translate(303.33 454.19) rotate(-83.86)"/><rect class="cls-8" x="21.04" y="271.51" width="5.8" height="25.37" rx="2.86" transform="translate(-244.31 381.06) rotate(-105.04)"/><rect class="cls-9" x="44.75" y="259.3" width="5.37" height="23.49" rx="2.65" transform="translate(-189.73 131.51) rotate(-49.6)"/><rect class="cls-7" x="91.87" y="237.8" width="5.13" height="22.43" rx="2.53" transform="translate(-171.88 250.42) rotate(-69.53)"/><rect class="cls-8" x="116.29" y="231.4" width="4.31" height="18.87" rx="2.13" transform="translate(-75.19 55) rotate(-19.99)"/><rect class="cls-7" x="160.02" y="214.32" width="5.34" height="23.37" rx="2.63" transform="matrix(0.16, -0.99, 0.99, 0.16, -86.84, 349.63)"/><rect class="cls-3" x="189.06" y="184.14" width="4.96" height="21.7" rx="2.45" transform="translate(90.86 449.1) rotate(-113.9)"/><rect class="cls-4" x="231.58" y="179.29" width="4.98" height="21.79" rx="2.46" transform="translate(-63.91 143.61) rotate(-30.21)"/><rect class="cls-8" x="257.44" y="152.45" width="4.9" height="21.42" rx="2.41" transform="translate(15.75 -22.74) rotate(5.17)"/><rect class="cls-9" x="293.14" y="142.88" width="5.3" height="23.17" rx="2.61" transform="translate(265.26 -177.83) rotate(57.18)"/><rect class="cls-4" x="322.84" y="128.69" width="4.46" height="19.49" rx="2.2" transform="translate(298.91 -213.92) rotate(62.69)"/><rect class="cls-8" x="368.47" y="102.21" width="6.06" height="26.51" rx="2.99" transform="translate(307.3 -268.23) rotate(63.24)"/><rect class="cls-8" x="398.29" y="85.63" width="5.84" height="25.56" rx="2.88" transform="matrix(0.84, 0.55, -0.55, 0.84, 118.7, -203)"/><rect class="cls-3" x="12.04" y="314.72" width="4.32" height="18.89" rx="2.13" transform="translate(95.27 9.98) rotate(16.98)"/><rect class="cls-3" x="45.8" y="291.96" width="6.06" height="26.52" rx="2.99" transform="translate(-235.67 184.38) rotate(-57.9)"/><rect class="cls-3" x="90.6" y="274.94" width="5.26" height="23.02" rx="2.59" transform="translate(-7.94 2.71) rotate(-1.6)"/><rect class="cls-3" x="123.81" y="262.46" width="5.63" height="24.63" rx="2.78" transform="translate(264.32 5.38) rotate(51.82)"/><rect class="cls-3" x="160.12" y="256.68" width="5.02" height="21.95" rx="2.47" transform="translate(335.15 6.26) rotate(64.71)"/><rect class="cls-4" x="182.69" y="237.59" width="5.61" height="24.55" rx="2.77" transform="translate(-48.12 44.28) rotate(-12.06)"/><rect class="cls-4" x="226.24" y="216.16" width="5.61" height="24.53" rx="2.76" transform="translate(86.31 -61.86) rotate(18.89)"/><rect class="cls-3" x="259.26" y="198.45" width="5.83" height="25.52" rx="2.88" transform="translate(254.47 -125.37) rotate(49.83)"/><rect class="cls-7" x="295.23" y="182.23" width="5.51" height="24.13" rx="2.72" transform="translate(50.39 449.72) rotate(-79)"/><rect class="cls-7" x="326.37" y="171.99" width="6.03" height="26.39" rx="2.97" transform="translate(97.87 -113.46) rotate(22.87)"/><rect class="cls-4" x="353.1" y="146.6" width="5.97" height="26.11" rx="2.94" transform="translate(249.15 534.96) rotate(-98.25)"/><rect class="cls-7" x="392.84" y="136.94" width="4.51" height="19.74" rx="2.22" transform="translate(-14.24 46.31) rotate(-6.59)"/><rect class="cls-3" x="432.29" y="114.55" width="5.61" height="24.53" rx="2.76" transform="translate(-2.7 9.65) rotate(-1.27)"/><rect class="cls-8" x="18.3" y="358.75" width="5.24" height="22.94" rx="2.59" transform="translate(-340.49 287.24) rotate(-73.83)"/><rect class="cls-10" x="46.77" y="337.11" width="5.41" height="23.65" rx="2.67" transform="translate(92.19 -0.89) rotate(15.03)"/><rect class="cls-8" x="75.68" y="324.21" width="6.02" height="26.32" rx="2.97" transform="translate(-88.96 34.21) rotate(-15.81)"/><rect class="cls-4" x="112.77" y="301.6" width="5.62" height="24.59" rx="2.77" transform="translate(-213.57 254.33) rotate(-59.53)"/><rect class="cls-8" x="151.41" y="283.05" width="5.98" height="26.18" rx="2.95" transform="translate(-123.51 110.93) rotate(-28.78)"/><rect class="cls-4" x="180.65" y="273.79" width="5.68" height="24.86" rx="2.8" transform="translate(198.72 -53.42) rotate(35.23)"/><rect class="cls-10" x="222.28" y="260.32" width="5.24" height="22.93" rx="2.58" transform="translate(328.35 -65.48) rotate(56.66)"/><rect class="cls-8" x="258.45" y="245.23" width="5.27" height="23.04" rx="2.6" transform="translate(201.02 -104.47) rotate(36.04)"/><rect class="cls-8" x="287.65" y="230.28" width="5.52" height="24.16" rx="2.72" transform="translate(85.34 560.19) rotate(-97.02)"/><rect class="cls-7" x="317.77" y="213.44" width="4.64" height="20.29" rx="2.29" transform="translate(20.01 -26.22) rotate(4.84)"/><rect class="cls-9" x="353.45" y="202.55" width="4.75" height="20.78" rx="2.34" transform="translate(-56.13 165.53) rotate(-24.33)"/><rect class="cls-8" x="392.21" y="179.79" width="4.34" height="18.99" rx="2.14" transform="translate(33.37 436.33) rotate(-60.02)"/><rect class="cls-3" x="430.19" y="169.44" width="5.49" height="24.02" rx="2.71" transform="matrix(1, -0.08, 0.08, 1, -12.72, 33.99)"/><rect class="cls-10" x="52.82" y="378.4" width="6.01" height="26.3" rx="2.96" transform="translate(-280.61 183.62) rotate(-50.17)"/><rect class="cls-10" x="85.34" y="373.79" width="4.49" height="19.66" rx="2.22" transform="translate(-298.61 308.23) rotate(-66.09)"/><rect class="cls-4" x="120.64" y="343.76" width="5.22" height="22.82" rx="2.57" transform="translate(-229.82 484.33) rotate(-90.96)"/><rect class="cls-4" x="156.52" y="332.43" width="5.25" height="22.97" rx="2.59" transform="translate(-207.22 247.07) rotate(-50.36)"/><rect class="cls-7" x="178.3" y="314.1" width="5.51" height="24.1" rx="2.72" transform="translate(233.7 -43.15) rotate(37.15)"/><rect class="cls-4" x="226.54" y="299.32" width="4.33" height="18.95" rx="2.14" transform="translate(-52.8 47.23) rotate(-10.58)"/><rect class="cls-9" x="251.8" y="294.95" width="4.41" height="19.29" rx="2.17" transform="translate(389.15 -68.27) rotate(59.75)"/><rect class="cls-3" x="286.82" y="268.95" width="4.41" height="19.3" rx="2.18" transform="translate(-110.17 320.99) rotate(-50.01)"/><rect class="cls-9" x="318.9" y="258.47" width="4.28" height="18.72" rx="2.11" transform="translate(63.87 -61.81) rotate(12.2)"/><rect class="cls-9" x="357.92" y="234.64" width="4.71" height="20.6" rx="2.32" transform="translate(264.68 -180.09) rotate(43.11)"/><rect class="cls-4" x="399.18" y="218.99" width="6.05" height="26.46" rx="2.98" transform="translate(-44.68 105.79) rotate(-14.2)"/><rect class="cls-4" x="432.44" y="209.49" width="5.34" height="23.37" rx="2.63" transform="translate(121.75 595.39) rotate(-77)"/><rect class="cls-3" x="465.61" y="193.66" width="5.94" height="25.99" rx="2.93" transform="translate(377.97 710.7) rotate(-103.61)"/><rect class="cls-3" x="53.36" y="419.01" width="5.52" height="24.15" rx="2.72" transform="translate(-28.23 4.62) rotate(-3.77)"/><rect class="cls-8" x="88.85" y="416.63" width="4.28" height="18.74" rx="2.11" transform="translate(-32.12 8.15) rotate(-4.36)"/><rect class="cls-8" x="113.73" y="395.66" width="4.72" height="20.64" rx="2.33" transform="translate(377.23 74.17) rotate(54.16)"/><rect class="cls-3" x="157.22" y="376.42" width="4.49" height="19.64" rx="2.21" transform="translate(-194.25 163.76) rotate(-35.4)"/><rect class="cls-4" x="181.52" y="355.03" width="4.96" height="21.72" rx="2.45" transform="translate(-174.78 563.37) rotate(-92.13)"/><rect class="cls-4" x="216.76" y="348.88" width="5.9" height="25.82" rx="2.91" transform="translate(65.86 -32.54) rotate(9.96)"/><rect class="cls-8" x="253.31" y="331.91" width="5.17" height="22.62" rx="2.55" transform="translate(321.77 -79.8) rotate(45.56)"/><rect class="cls-3" x="292.7" y="319.26" width="5.06" height="22.14" rx="2.5" transform="translate(15.69 -13.38) rotate(2.67)"/><rect class="cls-7" x="321.74" y="290.55" width="5.71" height="24.97" rx="2.81" transform="translate(-103.28 184.22) rotate(-27.51)"/><rect class="cls-7" x="358.41" y="278.05" width="5.44" height="23.78" rx="2.68" transform="translate(144.47 699.25) rotate(-100.87)"/><rect class="cls-4" x="387.07" y="257.65" width="5.01" height="21.92" rx="2.47" transform="translate(-28.34 46.64) rotate(-6.61)"/><rect class="cls-4" x="422.89" y="252.1" width="4.54" height="19.86" rx="2.24" transform="matrix(1, 0.09, -0.09, 1, 24.01, -35.45)"/><rect class="cls-10" x="454.94" y="237.26" width="4.62" height="20.2" rx="2.28" transform="translate(-46.73 374.91) rotate(-42.61)"/><rect class="cls-4" x="74.93" y="453.82" width="5.94" height="25.99" rx="2.93" transform="translate(6.65 -1.06) rotate(0.82)"/><rect class="cls-8" x="114.51" y="441.38" width="4.39" height="19.23" rx="2.17" transform="translate(43.29 -9.03) rotate(5.44)"/><rect class="cls-7" x="151.52" y="415.66" width="5.02" height="21.95" rx="2.47" transform="translate(-184.14 124.33) rotate(-28.35)"/><rect class="cls-4" x="178.93" y="403.51" width="4.39" height="19.22" rx="2.17" transform="translate(-195.22 661.78) rotate(-99.78)"/><rect class="cls-3" x="216.2" y="394.69" width="5.07" height="22.17" rx="2.5" transform="translate(130.87 -46.75) rotate(17.34)"/><rect class="cls-10" x="257.66" y="369.31" width="6.01" height="26.28" rx="2.96" transform="matrix(1, -0.02, 0.02, 1, -9.22, 6.45)"/><rect class="cls-7" x="283.45" y="361.33" width="5.35" height="23.42" rx="2.64" transform="translate(57.1 783.62) rotate(-113.36)"/><rect class="cls-7" x="321.35" y="334.04" width="5.14" height="22.48" rx="2.53" transform="translate(-0.97 689.64) rotate(-93.49)"/><rect class="cls-8" x="359.24" y="326.31" width="4.88" height="21.34" rx="2.4" transform="translate(142.93 780.28) rotate(-106.71)"/><rect class="cls-8" x="385.5" y="303.68" width="4.79" height="20.94" rx="2.36" transform="translate(261.97 -168.86) rotate(36.38)"/><rect class="cls-9" x="417.95" y="294.97" width="5.5" height="24.08" rx="2.71" transform="translate(427.85 -213.75) rotate(54.67)"/><rect class="cls-7" x="458.66" y="277.01" width="5.02" height="21.96" rx="2.47" transform="translate(-46.69 482.12) rotate(-52.9)"/><rect class="cls-4" x="149.3" y="455.89" width="4.63" height="20.26" rx="2.28" transform="translate(131.73 -23.64) rotate(15.7)"/><rect class="cls-8" x="179.63" y="446.45" width="4.45" height="19.45" rx="2.19" transform="translate(-226.19 729.44) rotate(-102.07)"/><rect class="cls-8" x="216.57" y="424.21" width="4.75" height="20.77" rx="2.34" transform="matrix(0.95, 0.31, -0.31, 0.95, 143.02, -46.08)"/><rect class="cls-9" x="254.98" y="419.23" width="5.59" height="24.45" rx="2.76" transform="translate(492.34 -13.05) rotate(58.68)"/><rect class="cls-10" x="281.19" y="394.8" width="5.83" height="25.51" rx="2.87" transform="translate(-187 565.29) rotate(-73.63)"/><rect class="cls-8" x="325.73" y="379.84" width="5.51" height="24.1" rx="2.72" transform="translate(191.26 -100.7) rotate(24.4)"/><rect class="cls-10" x="359.25" y="369.75" width="5.26" height="23" rx="2.59" transform="translate(57.73 809.98) rotate(-101.14)"/><rect class="cls-3" x="387.17" y="346.59" width="4.33" height="18.95" rx="2.14" transform="translate(-62.89 627.84) rotate(-73.45)"/><rect class="cls-3" x="417.86" y="337.02" width="5.14" height="22.47" rx="2.53" transform="translate(74.46 -74.06) rotate(11.04)"/><rect class="cls-10" x="457.02" y="309.37" width="5.75" height="25.17" rx="2.84" transform="translate(-100.05 362.25) rotate(-39.11)"/><rect class="cls-3" x="244.72" y="450.68" width="4.85" height="21.24" rx="2.39" transform="translate(-100.89 852.13) rotate(-110.13)"/><rect class="cls-9" x="283.51" y="438.61" width="5.33" height="23.32" rx="2.63" transform="translate(-111.49 94.6) rotate(-15.75)"/><rect class="cls-4" x="321.85" y="427.78" width="5.62" height="24.61" rx="2.77" transform="translate(-221.72 463.38) rotate(-56.02)"/><rect class="cls-9" x="354.74" y="406.34" width="5.72" height="25.04" rx="2.82" transform="translate(-104 719.28) rotate(-82.57)"/><rect class="cls-8" x="390.76" y="395.79" width="4.98" height="21.79" rx="2.46" transform="translate(97.49 888.95) rotate(-104.44)"/><rect class="cls-8" x="414.97" y="372.81" width="6.07" height="26.57" rx="2.99" transform="translate(379.35 -181.62) rotate(43.38)"/><rect class="cls-10" x="452.92" y="359.11" width="5.33" height="23.31" rx="2.63" transform="translate(-112.61 519.7) rotate(-53.83)"/><rect class="cls-4" x="357.37" y="455.08" width="5.5" height="24.06" rx="2.71" transform="translate(214.07 -104.33) rotate(23.29)"/><rect class="cls-7" x="390.98" y="440.58" width="4.56" height="19.96" rx="2.25" transform="translate(23.97 920.96) rotate(-100.75)"/><rect class="cls-3" x="418.17" y="421.46" width="5.32" height="23.28" rx="2.62" transform="translate(-182.81 416.13) rotate(-44.21)"/><rect class="cls-7" x="449.58" y="397.75" width="5.74" height="25.1" rx="2.83" transform="translate(-97.06 676.94) rotate(-68.09)"/></g></g></svg>