<?xml version="1.0" encoding="UTF-8"?><svg xmlns="http://www.w3.org/2000/svg" xmlns:xlink="http://www.w3.org/1999/xlink" viewBox="0 0 460 460"><defs><style>.s{fill:aqua;}.t{clip-path:url(#h);}.u{stroke:#701b1b;stroke-linecap:round;stroke-width:2px;}.u,.v,.w,.x{stroke-miterlimit:10;}.u,.w,.y{fill:none;}.a`{fill:#ff99ec;}.aa{fill:#fafdff;}.ab{fill:#662d91;}.ac{fill:blue;}.ad{fill:#ff5f5f;}.ae{fill:#ffc7c7;}.af{fill:lime;}.v{fill:#151923;stroke-width:3px;}.v,.w,.x{stroke:#000;}.w,.x{stroke-width:5px;}.ag{clip-path:url(#f);}.x{fill:#262626;}.ah{fill:red;}.ai{fill:#ff0;}</style><clipPath id="f"><path class="y" d="M-268.53,3.93c-121.5,0-220,98.5-220,220s98.5,220,220,220S-48.53,345.43-48.53,223.93-147.02,3.93-268.53,3.93Zm0,320c-55.23,0-100-44.77-100-100s44.77-100,100-100,100,44.77,100,100-44.77,100-100,100Z"/></clipPath><clipPath id="h"><path class="y" d="M230,10C108.5,10,10,108.5,10,230s98.5,220,220,220,220-98.5,220-220S351.5,10,230,10Zm0,320c-55.23,0-100-44.77-100-100s44.77-100,100-100,100,44.77,100,100-44.77,100-100,100Z"/></clipPath></defs><g id="a"/><g id="b"/><g id="c"/><g id="d"/><g id="e"><g class="ag"><g><rect class="s" x="7" y="-23.6" width="9.39" height="41.08" rx="2.88" ry="2.88" transform="translate(.23 -6.88) rotate(33.07)"/><rect class="ac" x="-1.76" y="58.87" width="7.25" height="31.73" rx="2.22" ry="2.22" transform="translate(-8.56 .71) rotate(-6.59)"/><rect class="af" x="61.65" y="22.89" width="9.01" height="39.43" rx="2.76" ry="2.76" transform="translate(-.93 1.47) rotate(-1.27)"/><rect class="s" x="-2.76" y="127.74" width="6.98" height="30.52" rx="2.14" ry="2.14" transform="translate(-123.51 72.18) rotate(-60.02)"/><rect class="af" x="58.27" y="111.11" width="8.82" height="38.61" rx="2.71" ry="2.71" transform="translate(-9.89 5.23) rotate(-4.43)"/><rect class="ai" x="8.44" y="190.75" width="9.72" height="42.52" rx="2.98" ry="2.98" transform="translate(-51.61 9.74) rotate(-14.2)"/><rect class="ai" x="61.89" y="175.48" width="8.59" height="37.56" rx="2.63" ry="2.63" transform="translate(-137.99 215.06) rotate(-77)"/><rect class="af" x="115.2" y="150.04" width="9.55" height="41.78" rx="2.93" ry="2.93" transform="translate(-17.92 327.75) rotate(-103.61)"/><rect class="ai" x="46.55" y="243.97" width="7.3" height="31.92" rx="2.24" ry="2.24" transform="translate(22.45 -3.34) rotate(4.91)"/><rect class="ab" x="98.06" y="220.12" width="7.42" height="32.46" rx="2.28" ry="2.28" transform="translate(-133.15 131.32) rotate(-42.61)"/><rect class="s" x="-13.55" y="326.87" width="7.69" height="33.65" rx=".92" ry=".92" transform="translate(201.99 72.76) rotate(36.38)"/><rect class="ah" x="38.6" y="312.87" width="8.85" height="38.7" rx="2.71" ry="2.71" transform="translate(289.17 104.99) rotate(54.67)"/><rect class="ac" x="104.03" y="284" width="8.07" height="35.3" rx="2.47" ry="2.47" transform="translate(-197.72 205.9) rotate(-52.9)"/><rect class="af" x="164.58" y="250.76" width="8.4" height="36.76" rx="2.58" ry="2.58" transform="translate(-103.86 106.08) rotate(-27.02)"/><rect class="af" x="-10.87" y="395.84" width="6.96" height="30.45" rx="1.52" ry="1.52" transform="translate(-399.32 286.88) rotate(-73.45)"/><rect class="af" x="38.47" y="380.46" width="8.26" height="36.12" rx="2.53" ry="2.53" transform="translate(77.09 -.78) rotate(11.04)"/><rect class="ab" x="101.39" y="336.01" width="9.25" height="40.45" rx="2.84" ry="2.84" transform="translate(-200.97 146.7) rotate(-39.11)"/><rect class="ac" x="169.1" y="336.68" width="7.7" height="33.7" rx="2.36" ry="2.36" transform="translate(94.5 -32.14) rotate(14.57)"/><rect class="s" x="33.81" y="437.98" width="9.76" height="42.71" rx="2.99" ry="2.99" transform="translate(326.04 98.9) rotate(43.38)"/><rect class="ab" x="94.81" y="415.96" width="8.57" height="37.47" rx="2.63" ry="2.63" transform="translate(-310.3 258.12) rotate(-53.83)"/><rect class="af" x="151.8" y="385.06" width="7.66" height="33.51" rx="2.35" ry="2.35" transform="translate(-258 522.59) rotate(-85.11)"/><rect class="af" x="202.36" y="372.19" width="8.64" height="37.79" rx="2.65" ry="2.65" transform="translate(183.94 -50.67) rotate(24.91)"/><rect class="ai" x="198.9" y="424" width="9.54" height="41.73" rx="2.93" ry="2.93" transform="translate(-268.15 315.37) rotate(-50.05)"/></g></g></g><g id="g"><g><path class="a`" d="M230,455c-60.1,0-116.6-23.4-159.1-65.9C28.4,346.6,5,290.1,5,230S28.4,113.4,70.9,70.9C113.4,28.4,169.9,5,230,5s116.6,23.4,159.1,65.9,65.9,99,65.9,159.1-23.4,116.6-65.9,159.1c-42.5,42.5-99,65.9-159.1,65.9Zm0-320c-52.38,0-95,42.62-95,95s42.62,95,95,95,95-42.62,95-95-42.62-95-95-95Z"/><path d="M230,10c121.5,0,220,98.5,220,220s-98.5,220-220,220S10,351.5,10,230,108.5,10,230,10m0,320c55.23,0,100-44.77,100-100s-44.77-100-100-100-100,44.77-100,100,44.77,100,100,100M230,0C198.95,0,168.83,6.08,140.47,18.08c-27.39,11.58-51.99,28.17-73.11,49.29S29.66,113.08,18.08,140.47C6.08,168.83,0,198.95,0,230s6.08,61.17,18.08,89.53c11.58,27.39,28.17,51.99,49.29,73.11,21.12,21.12,45.72,37.7,73.1,49.29,28.36,12,58.48,18.08,89.53,18.08s61.17-6.08,89.53-18.08c27.39-11.58,51.99-28.17,73.1-49.29,21.12-21.12,37.7-45.72,49.29-73.11,12-28.36,18.08-58.48,18.08-89.53s-6.08-61.17-18.08-89.53c-11.58-27.39-28.17-51.99-49.29-73.11s-45.72-37.7-73.11-49.29C291.17,6.08,261.05,0,230,0h0Zm0,320c-49.63,0-90-40.37-90-90s40.37-90,90-90,90,40.37,90,90-40.37,90-90,90h0Z"/></g><g class="t"><g><rect class="ai" x="9.83" y="35.2" width="7.27" height="31.79" rx="2.23" ry="2.23" transform="translate(-25.17 15.04) rotate(-32.22)"/><rect class="ai" x="54.48" y="-14.23" width="8.76" height="38.33" rx="2.69" ry="2.69" transform="translate(31.21 57.13) rotate(-66.87)"/><rect class="ai" x="120.95" y="-23.56" width="7.54" height="33" rx="2.31" ry="2.31" transform="translate(62.8 101.44) rotate(-57.05)"/><rect class="af" x="-3.04" y="81.99" width="9.59" height="41.97" rx="2.94" ry="2.94" transform="translate(-7.51 .4) rotate(-4.18)"/><rect class="ac" x="52.65" y="80.12" width="7.7" height="33.68" rx="2.36" ry="2.36" transform="translate(-12.59 185.4) rotate(-111.78)"/><rect class="ab" x="110.64" y="32.28" width="7.87" height="34.45" rx="2.42" ry="2.42" transform="translate(-8.94 67.46) rotate(-31.64)"/><rect class="af" x="165.79" y="2.74" width="8.55" height="37.41" rx="2.62" ry="2.62" transform="translate(77.1 -122.57) rotate(49.97)"/><rect class="ac" x="234.3" y="2.5" width="7.13" height="31.2" rx="2.19" ry="2.19" transform="translate(248.81 256.4) rotate(-96.98)"/><rect class="ai" x="-.26" y="169.44" width="8.78" height="38.41" rx="2.69" ry="2.69" transform="translate(-106.64 35.89) rotate(-34.69)"/><rect class="ai" x="68.13" y="134.76" width="7.35" height="32.17" rx="2.26" ry="2.26" transform="translate(94.71 -14.64) rotate(33.34)"/><rect class="ai" x="120.56" y="115.46" width="7.4" height="32.39" rx="2.27" ry="2.27" transform="translate(-40.31 56.23) rotate(-22.03)"/><rect class="ai" x="161.42" y="73.81" width="8.43" height="36.86" rx="2.58" ry="2.58" transform="translate(-14.31 151.93) rotate(-47.47)"/><rect class="ac" x="230.65" y="55.73" width="7.92" height="34.66" rx="2.43" ry="2.43" transform="translate(-3.8 13.55) rotate(-3.28)"/><rect class="s" x="281.6" y="40.39" width="9.69" height="42.39" rx="2.97" ry="2.97" transform="translate(101.24 -165.44) rotate(38.66)"/><rect class="ah" x="328.31" y="1.65" width="8.49" height="37.15" rx="2.6" ry="2.6" transform="translate(137.45 290.29) rotate(-57.63)"/><rect class="s" x="403.01" y="-12.65" width="9.32" height="40.78" rx="2.86" ry="2.86" transform="translate(114.36 290.98) rotate(-45.09)"/><rect class="ac" x="13.04" y="227.06" width="8.24" height="36.06" rx="2.53" ry="2.53" transform="translate(-218.45 175.46) rotate(-69.53)"/><rect class="s" x="52.29" y="216.77" width="6.93" height="30.33" rx="2.13" ry="2.13" transform="translate(-75.92 33.03) rotate(-19.99)"/><rect class="ac" x="122.57" y="189.32" width="8.59" height="37.57" rx="2.63" ry="2.63" transform="translate(-99.15 299.3) rotate(-80.61)"/><rect class="af" x="169.25" y="140.81" width="7.97" height="34.88" rx="2.45" ry="2.45" transform="translate(98.72 380.74) rotate(-113.9)"/><rect class="ai" x="237.58" y="133.02" width="8" height="35.02" rx="2.46" ry="2.46" transform="translate(-42.93 142) rotate(-30.21)"/><rect class="s" x="279.15" y="89.87" width="7.87" height="34.42" rx="2.41" ry="2.41" transform="translate(10.79 -25.05) rotate(5.17)"/><rect class="ah" x="336.53" y="74.49" width="8.51" height="37.24" rx="2.61" ry="2.61" transform="translate(234.31 -243.74) rotate(57.18)"/><rect class="ai" x="384.27" y="51.69" width="7.16" height="31.33" rx="2.2" ry="2.2" transform="translate(269.73 -308.16) rotate(62.69)"/><rect class="s" x="457.6" y="9.12" width="9.74" height="42.61" rx="2.99" ry="2.99" transform="translate(281.38 -396.2) rotate(63.24)"/><rect class="af" x="10.99" y="286.75" width="8.46" height="37" rx="2.59" ry="2.59" transform="translate(-8.5 .54) rotate(-1.6)"/><rect class="af" x="64.37" y="266.69" width="9.05" height="39.58" rx="2.78" ry="2.78" transform="translate(251.48 55.23) rotate(51.82)"/><rect class="af" x="122.73" y="257.4" width="8.06" height="35.27" rx="2.47" ry="2.47" transform="translate(321.28 42.92) rotate(64.71)"/><rect class="ai" x="159" y="226.72" width="9.02" height="39.46" rx="2.77" ry="2.77" transform="translate(-47.89 39.61) rotate(-12.06)"/><rect class="ai" x="229" y="192.28" width="9.01" height="39.43" rx="2.76" ry="2.76" transform="translate(81.23 -64.19) rotate(18.89)"/><rect class="af" x="282.07" y="163.82" width="9.38" height="41.02" rx="2.88" ry="2.88" transform="translate(242.65 -153.7) rotate(49.83)"/><rect class="ac" x="339.89" y="137.75" width="8.86" height="38.78" rx="2.72" ry="2.72" transform="translate(124.35 465.14) rotate(-79)"/><rect class="ac" x="389.93" y="121.28" width="9.69" height="42.41" rx="2.97" ry="2.97" transform="translate(86.42 -142.23) rotate(22.87)"/><rect class="ai" x="432.9" y="80.48" width="9.59" height="41.97" rx="2.94" ry="2.94" transform="translate(400.06 549.19) rotate(-98.25)"/><rect class="s" x="-12.99" y="365.94" width="9.67" height="42.3" rx="2.97" ry="2.97" transform="translate(-105.79 12.43) rotate(-15.81)"/><rect class="ai" x="46.62" y="329.6" width="9.03" height="39.51" rx="2.77" ry="2.77" transform="translate(-275.9 216.27) rotate(-59.53)"/><rect class="s" x="108.73" y="299.78" width="9.62" height="42.07" rx="2.95" ry="2.95" transform="translate(-140.44 94.31) rotate(-28.78)"/><rect class="ai" x="155.72" y="284.9" width="9.13" height="39.96" rx="2.8" ry="2.8" transform="translate(205.24 -36.62) rotate(35.23)"/><rect class="ab" x="222.64" y="263.25" width="8.42" height="36.85" rx="2.58" ry="2.58" transform="translate(337.49 -62.65) rotate(56.66)"/><rect class="s" x="280.77" y="239" width="8.47" height="37.03" rx="2.6" ry="2.6" transform="translate(206.05 -118.39) rotate(36.04)"/><rect class="s" x="327.7" y="214.96" width="8.88" height="38.84" rx="2.72" ry="2.72" transform="translate(140.08 592.66) rotate(-97.02)"/><rect class="ac" x="376.12" y="187.9" width="7.45" height="32.62" rx="2.29" ry="2.29" transform="translate(18.59 -31.33) rotate(4.84)"/><rect class="ah" x="433.47" y="170.4" width="7.63" height="33.39" rx="2.34" ry="2.34" transform="translate(-38.25 196.8) rotate(-24.33)"/><rect class="ab" x="2.54" y="445.63" width="7.22" height="31.59" rx="2.22" ry="2.22" transform="translate(-418.18 280.06) rotate(-66.09)"/><rect class="ai" x="59.27" y="397.37" width="8.38" height="36.67" rx="2.57" ry="2.57" transform="translate(-351.13 486.1) rotate(-90.96)"/><rect class="ai" x="116.95" y="379.15" width="8.44" height="36.92" rx="2.59" ry="2.59" transform="translate(-262.32 237.26) rotate(-50.36)"/><rect class="ac" x="151.96" y="349.69" width="8.85" height="38.73" rx="2.72" ry="2.72" transform="translate(254.6 -19.55) rotate(37.15)"/><rect class="ai" x="229.48" y="325.93" width="6.96" height="30.46" rx="2.14" ry="2.14" transform="translate(-58.67 48.56) rotate(-10.58)"/><rect class="ah" x="270.08" y="318.92" width="7.09" height="31.01" rx="2.17" ry="2.17" transform="translate(424.65 -70.42) rotate(59.75)"/><rect class="af" x="326.37" y="277.12" width="7.09" height="31.02" rx="2.18" ry="2.18" transform="translate(-106.31 357.33) rotate(-50.01)"/><rect class="ah" x="377.93" y="260.28" width="6.88" height="30.08" rx="2.11" ry="2.11" transform="translate(66.81 -74.39) rotate(12.2)"/><rect class="ah" x="440.64" y="221.99" width="7.57" height="33.12" rx="2.32" ry="2.32" transform="translate(283.03 -239.34) rotate(43.11)"/><rect class="af" x="118.07" y="449.85" width="7.21" height="31.56" rx="2.21" ry="2.21" transform="translate(-247.22 156.55) rotate(-35.4)"/><rect class="ai" x="157.13" y="415.47" width="7.98" height="34.91" rx="2.45" ry="2.45" transform="translate(-265.51 610.04) rotate(-92.13)"/><rect class="ai" x="213.76" y="405.59" width="9.48" height="41.5" rx="2.91" ry="2.91" transform="translate(77 -31.36) rotate(9.96)"/><rect class="s" x="272.51" y="378.32" width="8.31" height="36.36" rx="2.55" ry="2.55" transform="translate(366.03 -78.65) rotate(45.56)"/><rect class="af" x="335.83" y="357.98" width="8.13" height="35.59" rx="2.5" ry="2.5" transform="translate(17.85 -15.41) rotate(2.67)"/><rect class="ac" x="382.49" y="311.84" width="9.17" height="40.14" rx="2.81" ry="2.81" transform="translate(-109.55 216.35) rotate(-27.51)"/><rect class="ac" x="441.43" y="291.75" width="8.74" height="38.22" rx="2.68" ry="2.68" transform="translate(224.56 807.27) rotate(-100.87)"/><rect class="ab" x="279.5" y="438.43" width="9.65" height="42.23" rx="2.96" ry="2.96" transform="translate(-11.09 7.05) rotate(-1.39)"/><rect class="ac" x="320.95" y="425.61" width="8.6" height="37.64" rx="2.64" ry="2.64" transform="translate(46.2 919.22) rotate(-113.36)"/><rect class="ac" x="381.87" y="381.74" width="8.26" height="36.12" rx="2.53" ry="2.53" transform="translate(10.47 809.45) rotate(-93.49)"/><rect class="s" x="442.77" y="369.31" width="7.84" height="34.3" rx="2.4" ry="2.4" transform="translate(204.99 925.42) rotate(-106.71)"/><rect class="s" x="388.9" y="455.36" width="8.85" height="38.73" rx="2.72" ry="2.72" transform="translate(231.28 -120.1) rotate(24.4)"/><rect class="ab" x="442.78" y="439.14" width="8.45" height="36.97" rx="2.59" ry="2.59" transform="translate(84.38 984.63) rotate(-101.14)"/></g></g><g id="i"><path class="ad" d="M213.87,268.49c-16.55,0-32.03-13.5-36.01-31.4l-11.7-52.65c-2-9.01-.49-17.77,4.06-23.43,3.03-3.78,7.25-5.88,11.92-5.94,2.97-.47,33.45-5.27,47.93-5.27s45.79,4.81,48.77,5.27c4.67,.06,8.9,2.16,11.93,5.94,4.54,5.66,6.06,14.43,4.06,23.44l-11.7,52.65c-3.98,17.9-19.46,31.4-36.01,31.4h-33.25Z"/><path d="M230.07,152.29c14.89,0,48.57,5.27,48.57,5.27,10.78,0,16.83,12.44,13.75,26.33l-11.7,52.65c-3.82,17.2-18.71,29.44-33.57,29.44h-33.25c-14.86,0-29.74-12.24-33.57-29.44l-11.7-52.65c-3.09-13.89,2.97-26.33,13.75-26.33,0,0,32.84-5.27,47.73-5.27m0-5c-14.43,0-44.31,4.67-48.15,5.28-5.35,.12-10.19,2.55-13.65,6.87-5.01,6.25-6.71,15.8-4.55,25.54l11.7,52.65c4.23,19.02,20.76,33.36,38.45,33.36h33.25c17.69,0,34.22-14.34,38.45-33.36l11.7-52.65c2.17-9.74,.47-19.29-4.55-25.54-3.47-4.32-8.31-6.75-13.66-6.87-3.86-.6-34.54-5.28-48.99-5.28h0Z"/></g><g id="j"><path class="aa" d="M210.29,373.47c-9.84,0-19.23-4.34-26.44-12.23-9.94-10.87-14.96-27.41-13.45-44.24l5.84-65.01c2.33-25.86,21.99-46.12,44.77-46.12h18.95c22.78,0,42.45,20.26,44.77,46.12l5.84,65.01c1.51,16.83-3.52,33.37-13.45,44.24-7.21,7.88-16.6,12.23-26.44,12.23h-40.4Z"/><path d="M239.97,208.37c21.09,0,40.04,18.87,42.28,43.84l5.84,65.01c2.56,28.48-14.17,53.74-37.4,53.74h-40.4c-23.23,0-39.96-25.26-37.4-53.74l5.84-65.01c2.24-24.97,21.19-43.84,42.28-43.84h18.95m0-5h-18.95c-24.06,0-44.82,21.26-47.26,48.39l-5.84,65.01c-1.57,17.52,3.7,34.77,14.1,46.15,7.69,8.41,17.73,13.04,28.28,13.04h40.4c10.55,0,20.59-4.63,28.28-13.04,10.4-11.38,15.67-28.63,14.1-46.15l-5.84-65.01c-2.44-27.14-23.2-48.39-47.26-48.39h0Z"/></g><g id="k"><g id="l"><path class="ae" d="M286.1,350.78c-8.19,0-15.36-6.15-17.06-14.63-1.98-9.92,4.01-19.74,13.37-21.88l70.61-16.16-2.32-66.52c-.27-7.77,5.49-14.32,12.84-14.62l1.79-.07c.17,0,.34-.01,.5-.01,7.22,0,13.08,5.97,13.34,13.59l2.93,84.11c.15,4.32-1.64,8.53-4.79,11.33-2.51,3.43-6.07,5.81-10.04,6.72l-77.5,17.73c-1.21,.28-2.44,.42-3.67,.42h0Z"/><path d="M365.83,219.4c5.79,0,10.63,4.94,10.84,11.18l2.93,84.11c.13,3.84-1.52,7.32-4.15,9.54-2.09,2.95-5.12,5.15-8.74,5.98l-77.5,17.73c-1.04,.24-2.08,.35-3.11,.35-6.88,0-13.11-5.15-14.61-12.62h0c-1.72-8.58,3.45-17.11,11.47-18.95l72.62-16.62-2.39-68.59c-.22-6.38,4.48-11.79,10.44-12.03l1.79-.07c.14,0,.27,0,.41,0m0-5c-.2,0-.4,0-.6,.01l-1.79,.07c-8.72,.35-15.56,8.06-15.24,17.2l2.24,64.46-68.6,15.69c-10.66,2.44-17.51,13.57-15.26,24.8,1.93,9.64,10.13,16.64,19.51,16.64,1.41,0,2.83-.16,4.22-.48l77.5-17.73c4.48-1.02,8.48-3.66,11.34-7.46,3.59-3.29,5.61-8.14,5.44-13.1l-2.93-84.1c-.31-8.97-7.27-16-15.84-16h0Z"/></g><g id="m"><path class="ae" d="M174.89,350.78c-1.23,0-2.46-.14-3.67-.42l-77.5-17.73c-3.97-.91-7.53-3.29-10.04-6.72-3.16-2.8-4.95-7.01-4.79-11.33l2.93-84.11c.27-7.62,6.13-13.59,13.34-13.59,.17,0,.34,0,.5,.01l1.79,.07c7.35,.29,13.11,6.85,12.84,14.62l-2.31,66.52,70.61,16.16c9.35,2.14,15.35,11.95,13.37,21.88-1.7,8.48-8.87,14.63-17.06,14.63Z"/><path d="M95.15,219.4c.13,0,.27,0,.41,0l1.79,.07c5.96,.24,10.66,5.65,10.44,12.03l-2.39,68.59,72.62,16.62c8.03,1.84,13.19,10.36,11.47,18.95h0c-1.49,7.47-7.73,12.62-14.61,12.62-1.03,0-2.07-.11-3.11-.35l-77.5-17.73c-3.62-.83-6.66-3.03-8.74-5.98-2.63-2.22-4.29-5.7-4.15-9.54l2.93-84.11c.22-6.23,5.06-11.18,10.84-11.18m0-5h0c-8.57,0-15.53,7.03-15.84,16l-2.93,84.11c-.17,4.97,1.85,9.82,5.44,13.1,2.86,3.8,6.87,6.44,11.34,7.46l77.5,17.73c1.39,.32,2.81,.48,4.22,.48,9.38,0,17.58-7,19.51-16.64,2.25-11.24-4.6-22.36-15.26-24.8l-68.6-15.69,2.24-64.46c.32-9.14-6.52-16.85-15.24-17.2l-1.79-.07c-.2,0-.4-.01-.6-.01h0Z"/></g></g><g id="n"><ellipse class="ae" cx="230.49" cy="364.8" rx="55" ry="56"/><path d="M230.49,311.3c28.99,0,52.5,23.95,52.5,53.5s-23.51,53.5-52.5,53.5-52.5-23.95-52.5-53.5,23.51-53.5,52.5-53.5m0-5c-31.71,0-57.5,26.24-57.5,58.5s25.79,58.5,57.5,58.5,57.5-26.24,57.5-58.5-25.79-58.5-57.5-58.5h0Z"/></g><g><path class="v" d="M199.16,316.61h14.22c6.19,0,11.22,5.03,11.22,11.22v4.64c0,4.66-3.79,8.45-8.45,8.45h-22.09c-4.66,0-8.45-3.79-8.45-8.45v-2.31c0-7.48,6.07-13.55,13.55-13.55Z" transform="translate(-20.42 13.66) rotate(-3.63)"/><path class="v" d="M243.85,316.61h22.09c4.66,0,8.45,3.79,8.45,8.45v4.64c0,6.19-5.03,11.22-11.22,11.22h-14.22c-7.48,0-13.55-6.07-13.55-13.55v-2.31c0-4.66,3.79-8.45,8.45-8.45Z" transform="translate(488.45 673.02) rotate(-176.37)"/></g><path class="w" d="M223.5,327.64c1.19-.58,3.38-1.54,6.5-1.5,2.93,.03,5.33,.93,6.5,1.5"/><g id="o"><g id="p"><g><path class="ad" d="M165.55,181.93l-2.76-15.17c-6.22-15.25-.5-33.58,12.73-40.72l1.01-.55c13.23-7.14,29.13-.45,35.32,14.84l7.75,19.15c1.74,4.29,2.41,8.84,2.15,13.27"/><path d="M163.09,182.38c-1.01-5.04-1.99-10.08-2.95-15.13l.16,.53c-2.11-5.23-3.1-10.91-2.74-16.54,.49-8.1,3.69-16.17,9.29-22.14,11.08-11.48,28.22-12.73,39.87-1.28,.94,.79,2.06,2.25,2.89,3.17,.43,.62,1.44,2.02,1.84,2.63,.35,.59,1.22,2.17,1.57,2.78,1.82,3.82,6.46,16.1,8.13,20.2,1.03,2.51,2.03,5.22,2.29,7.94,.32,2.79,.14,5.63-.73,8.28-.17,.52-.73,.8-1.24,.62-.34-.11-.57-.39-.65-.71-.97-4.39-1.89-8.38-3.59-12.43-1.36-3.27-6.54-15.76-7.88-18.98-.24-.5-.9-1.91-1.15-2.43-.3-.52-1.07-1.81-1.36-2.31-6.02-9.32-17.56-14.01-27.89-9.01-14.08,6.17-19.16,24.42-13.66,38.19,1.09,5.2,1.81,10.5,2.73,15.73,.47,3.18-4.21,4.08-4.92,.89h0Z"/></g><g><g><path class="ad" d="M167.96,62.59c-6.83,0-13.52-8.18-16.64-20.35l-4.22-14.92c-.8-3.11-.07-11.03,4.17-15.94,3.72-4.31,11.25-8.39,15.49-8.39,.18,0,.36,0,.53,.02,6.06,.51,10.1,11.33,10.34,13.83l1.96,20.45c1.29,13.54-2.88,23.89-10.16,25.16-.48,.08-.97,.13-1.46,.13Z"/><path d="M166.76,5.51c.11,0,.22,0,.32,.01,4.16,.35,7.86,9.45,8.06,11.57l1.95,20.45c1.14,11.92-2.3,21.44-8.11,22.46-.34,.06-.68,.09-1.03,.09-5.53,0-11.42-7.54-14.22-18.47l-4.24-14.98c-.63-2.46,.08-9.48,3.66-13.62,3.56-4.12,10.44-7.52,13.59-7.52m0-5h0c-5,0-13.12,4.32-17.38,9.25-4.65,5.38-5.74,14.14-4.72,18.13l.02,.06,.02,.06,4.22,14.92c3.47,13.47,10.94,22.16,19.04,22.16,.63,0,1.27-.06,1.89-.16,8.62-1.51,13.65-12.96,12.22-27.86l-1.95-20.45c-.25-2.57-4.49-15.39-12.62-16.08-.24-.02-.48-.03-.74-.03h0Z"/></g><g><path class="ae" d="M183.64,164.25c-5.75,0-15.69-2.76-17.66-21.26l-9.48-89.14c-.43-4.07,2.28-7.79,6.18-8.47l7.28-1.27c.41-.07,.82-.11,1.24-.11,3.46,0,6.59,2.52,7.44,5.98l21.32,87.07c2.07,8.45,1.53,15.17-1.61,19.97-2.39,3.66-6.27,6.05-11.21,6.91-1.2,.21-2.38,.32-3.51,.32Z"/><path d="M171.2,46.49c2.28,0,4.42,1.65,5.02,4.08l21.32,87.07c3.68,15.05-1.84,22.26-10.82,23.83-1.05,.18-2.08,.28-3.08,.28-7.6,0-13.73-5.42-15.17-19.03l-9.48-89.14c-.29-2.77,1.55-5.3,4.12-5.74l7.28-1.27c.27-.05,.54-.07,.81-.07m0-5h0c-.56,0-1.12,.05-1.67,.14l-7.28,1.27c-5.19,.91-8.8,5.83-8.23,11.2l9.48,89.14c2.25,21.21,14.84,23.5,20.15,23.5,1.28,0,2.61-.12,3.94-.35,5.64-.99,10.09-3.75,12.87-8.01,3.53-5.4,4.18-12.78,1.94-21.94l-21.32-87.07c-1.14-4.64-5.2-7.89-9.87-7.89h0Z"/></g></g></g><g id="q"><g><path class="ad" d="M295.8,181.93l2.76-15.17c6.22-15.25,.5-33.58-12.73-40.72l-1.01-.55c-13.23-7.14-29.13-.45-35.32,14.84l-7.75,19.15c-1.74,4.29-2.41,8.84-2.15,13.27"/><path d="M293.34,181.48c.92-5.24,1.64-10.54,2.72-15.73,5.72-14.52-.02-33.22-15.24-38.88-10.28-3.96-21.37,1.26-26.77,10.47l-.91,1.54c-.24,.53-.91,1.92-1.15,2.43-.67,1.64-6.33,15.21-7.13,17.17-.95,2.23-1.88,4.58-2.54,6.92-.71,2.34-1.2,4.75-1.8,7.32-.17,.95-1.63,1.01-1.89,.09-1.78-5.32-.69-11.19,1.55-16.22,.79-2.06,6.16-15.59,6.82-17.3,.27-.6,1.02-2.27,1.3-2.9l1.04-1.85c4.29-7.48,11.9-13.19,20.53-14.45,9.18-1.49,18.29,2.57,24.6,9.01,5.61,5.97,8.8,14.04,9.29,22.14,.36,5.63-.64,11.31-2.74,16.54l.16-.53c-.95,5.05-1.94,10.09-2.95,15.13-.72,3.16-5.36,2.33-4.92-.89h0Z"/></g><g><g><path class="ad" d="M292.04,62.59c-.49,0-.98-.04-1.46-.13-7.28-1.27-11.46-11.62-10.16-25.16l1.96-20.45c.24-2.49,4.28-13.31,10.34-13.83,.17-.01,.35-.02,.53-.02,4.24,0,11.77,4.08,15.49,8.39,4.24,4.91,4.97,12.82,4.19,15.87l-4.25,15.04c-3.1,12.11-9.79,20.29-16.62,20.29h0Z"/><path d="M293.24,5.51c3.15,0,10.04,3.4,13.59,7.52,3.57,4.14,4.29,11.16,3.66,13.62l-4.24,14.98c-2.8,10.92-8.69,18.47-14.22,18.47-.34,0-.69-.03-1.03-.09-5.81-1.02-9.24-10.54-8.11-22.46l1.95-20.45c.2-2.12,3.91-11.22,8.06-11.57,.1,0,.21-.01,.32-.01m0-5c-.26,0-.51,.01-.74,.03-8.13,.69-12.37,13.51-12.62,16.08l-1.95,20.45c-1.42,14.9,3.6,26.35,12.22,27.86,.62,.11,1.26,.16,1.89,.16,8.11,0,15.58-8.7,19.04-22.16l4.22-14.92,.02-.06,.02-.06c1.02-3.99-.07-12.75-4.72-18.13-4.25-4.93-12.38-9.25-17.38-9.25h0Z"/></g><g><path class="ae" d="M276.36,164.25c-1.13,0-2.32-.11-3.51-.32-4.94-.86-8.81-3.25-11.21-6.91-3.14-4.8-3.68-11.52-1.61-19.97l21.32-87.07c.85-3.47,3.98-5.98,7.44-5.98,.42,0,.83,.04,1.24,.11l7.28,1.27c3.89,.68,6.61,4.4,6.18,8.47l-9.48,89.14c-1.97,18.5-11.91,21.26-17.66,21.26h0Z"/><path d="M288.8,46.49c.27,0,.54,.02,.81,.07l7.28,1.27c2.56,.45,4.41,2.97,4.12,5.74l-9.48,89.14c-1.45,13.6-7.58,19.03-15.17,19.03-1,0-2.04-.09-3.08-.28h0c-8.98-1.57-14.5-8.78-10.82-23.83l21.32-87.07c.59-2.42,2.73-4.08,5.02-4.08m0-5c-4.68,0-8.73,3.24-9.87,7.89l-21.32,87.07c-2.24,9.15-1.59,16.53,1.94,21.94,2.78,4.25,7.23,7.02,12.87,8.01,1.34,.23,2.67,.35,3.95,.35,5.31,0,17.89-2.29,20.15-23.5l9.48-89.14c.57-5.37-3.04-10.29-8.23-11.2l-7.29-1.27c-.55-.1-1.11-.14-1.67-.14h0Z"/></g></g></g></g><g id="r"><path class="x" d="M240.49,445.64h-20.98c-19.3,0-36.84-11.85-39.4-27.89l-3.56-22.34c-1.84-11.53,7.82-21.48,21.7-21.48h63.5c13.87,0,23.53,9.95,21.7,21.48l-3.56,22.34c-2.56,16.05-20.09,27.89-39.4,27.89Z"/><g><path class="ad" d="M230.01,423.14c-30.19,0-54.76-17.94-54.76-40,0-18.84,17.53-34.89,42.62-39.02,3.98-.65,8.06-.98,12.13-.98,4.43,0,8.85,.39,13.13,1.15,24.51,4.39,41.62,20.37,41.62,38.85,0,22.06-24.56,40-54.75,40Z"/><path d="M230.01,345.64c4.38,0,8.63,.39,12.69,1.11,22.72,4.07,39.56,18.81,39.56,36.39,0,20.71-23.39,37.5-52.25,37.5s-52.26-16.79-52.26-37.5c0-17.82,17.32-32.73,40.53-36.55,3.77-.62,7.7-.95,11.73-.95m0-5c-4.21,0-8.43,.34-12.54,1.01-12.26,2.02-23.44,7.07-31.48,14.23-8.54,7.59-13.24,17.28-13.24,27.26,0,11.67,6.18,22.53,17.39,30.58,10.71,7.69,24.87,11.92,39.87,11.92s29.15-4.23,39.86-11.92c11.21-8.05,17.39-18.91,17.39-30.58,0-19.71-17.96-36.7-43.68-41.31-4.43-.79-8.99-1.19-13.57-1.19h0Z"/></g><line class="u" x1="230.06" y1="346.24" x2="230.06" y2="420.64"/><g><path class="u" d="M192.82,357.74c2.24,5.42,9.82,32.97,36.86,43.24,20.82,7.91,29.1,11.39,34.48,9.4"/><path class="u" d="M195.96,410.37c5.52,1.97,13.41-1.89,33.72-9.4,27.33-10.1,35.27-37.71,37.62-43.24"/></g><g><path class="ae" d="M230.04,355.24c-10.02,0-11.48-.56-14.15-5.42l-.18-.33c-.42-.75-.44-1.66-.06-2.43,.39-.79,1.15-1.35,2.04-1.49,3.88-.63,7.86-.95,11.83-.95,4.33,0,8.65,.38,12.83,1.12,.89,.16,1.64,.73,2.01,1.53,.36,.78,.32,1.69-.11,2.43l-.15,.26c-2.82,4.92-4.55,5.28-14.07,5.28Z"/><path d="M229.52,347.13c4.27,0,8.43,.38,12.4,1.08,.15,.03,.24,.15,.18,.25-2.21,3.84-2.23,4.28-12.05,4.28s-9.97-.52-12.14-4.45c-.06-.1,.03-.22,.18-.25,3.68-.6,7.51-.92,11.44-.92m0-5c-4.11,0-8.22,.33-12.24,.98-1.69,.27-3.14,1.35-3.88,2.87-.73,1.5-.68,3.27,.12,4.73l.18,.32c3.35,6.09,6.09,6.71,16.34,6.71,5.54,0,8.22-.13,10.5-.97,3.23-1.18,4.57-3.51,5.75-5.57l.15-.26c.83-1.45,.91-3.22,.2-4.73-.72-1.54-2.15-2.63-3.84-2.93-4.33-.77-8.79-1.16-13.27-1.16h0Z"/></g></g></g></svg>